<svg xmlns="http://www.w3.org/2000/svg" xmlns:xlink="http://www.w3.org/1999/xlink" width="200" zoomAndPan="magnify" viewBox="0 0 150 79.499998" height="106" preserveAspectRatio="xMidYMid meet" version="1.0"><defs><g/><clipPath id="82bd6bd21a"><path d="M 16.339844 10.65625 L 133.597656 10.65625 L 133.597656 14.023438 L 16.339844 14.023438 Z M 16.339844 10.65625 " clip-rule="nonzero"/></clipPath><clipPath id="63ea84a4cb"><path d="M 16.90625 41.585938 L 134.164062 41.585938 L 134.164062 44.949219 L 16.90625 44.949219 Z M 16.90625 41.585938 " clip-rule="nonzero"/></clipPath></defs><g fill="#001d3d" fill-opacity="1"><g transform="translate(18.552064, 37.923948)"><g><path d="M 1.40625 -18.953125 L 7.765625 -18.953125 C 9.429688 -18.953125 10.675781 -18.476562 11.5 -17.53125 C 12.332031 -16.582031 12.75 -15.222656 12.75 -13.453125 C 12.75 -11.421875 12.269531 -10.007812 11.3125 -9.21875 C 10.351562 -8.4375 9.007812 -8.046875 7.28125 -8.046875 L 5.59375 -8.046875 L 5.59375 0 L 1.40625 0 Z M 7 -10.96875 C 7.726562 -10.96875 8.210938 -11.160156 8.453125 -11.546875 C 8.691406 -11.941406 8.8125 -12.597656 8.8125 -13.515625 C 8.8125 -14.359375 8.691406 -14.984375 8.453125 -15.390625 C 8.222656 -15.796875 7.726562 -16 6.96875 -16 L 5.59375 -16 L 5.59375 -10.96875 Z M 7 -10.96875 "/></g></g></g><g fill="#001d3d" fill-opacity="1"><g transform="translate(31.906672, 37.923948)"><g><path d="M 1.40625 -18.953125 L 6.625 -18.953125 C 8.695312 -18.953125 10.257812 -18.582031 11.3125 -17.84375 C 12.375 -17.113281 12.90625 -15.8125 12.90625 -13.9375 C 12.90625 -12.675781 12.738281 -11.671875 12.40625 -10.921875 C 12.082031 -10.171875 11.476562 -9.585938 10.59375 -9.171875 L 13.1875 0 L 8.859375 0 L 6.78125 -8.484375 L 5.59375 -8.484375 L 5.59375 0 L 1.40625 0 Z M 6.765625 -10.90625 C 7.597656 -10.90625 8.179688 -11.125 8.515625 -11.5625 C 8.859375 -12.007812 9.03125 -12.675781 9.03125 -13.5625 C 9.03125 -14.425781 8.875 -15.070312 8.5625 -15.5 C 8.25 -15.925781 7.710938 -16.140625 6.953125 -16.140625 L 5.59375 -16.140625 L 5.59375 -10.90625 Z M 6.765625 -10.90625 "/></g></g></g><g fill="#001d3d" fill-opacity="1"><g transform="translate(45.939541, 37.923948)"><g><path d="M 1.421875 -18.953125 L 5.609375 -18.953125 L 5.609375 0 L 1.421875 0 Z M 1.421875 -18.953125 "/></g></g></g><g fill="#001d3d" fill-opacity="1"><g transform="translate(52.979362, 37.923948)"><g><path d="M 3.109375 -15.828125 L 0.25 -15.828125 L 0.25 -18.953125 L 10.15625 -18.953125 L 10.15625 -15.828125 L 7.328125 -15.828125 L 7.328125 0 L 3.109375 0 Z M 3.109375 -15.828125 "/></g></g></g><g fill="#001d3d" fill-opacity="1"><g transform="translate(63.387071, 37.923948)"><g><path d="M 6.828125 0.28125 C 4.773438 0.28125 3.3125 -0.257812 2.4375 -1.34375 C 1.570312 -2.425781 1.140625 -3.988281 1.140625 -6.03125 L 1.140625 -12.859375 C 1.140625 -14.953125 1.566406 -16.53125 2.421875 -17.59375 C 3.285156 -18.664062 4.753906 -19.203125 6.828125 -19.203125 C 8.804688 -19.203125 10.207031 -18.722656 11.03125 -17.765625 C 11.863281 -16.816406 12.28125 -15.472656 12.28125 -13.734375 L 12.28125 -12.09375 L 8.1875 -12.09375 L 8.1875 -13.984375 C 8.1875 -14.722656 8.109375 -15.285156 7.953125 -15.671875 C 7.796875 -16.054688 7.421875 -16.25 6.828125 -16.25 C 6.234375 -16.25 5.84375 -16.039062 5.65625 -15.625 C 5.46875 -15.21875 5.375 -14.648438 5.375 -13.921875 L 5.375 -5 C 5.375 -4.257812 5.472656 -3.6875 5.671875 -3.28125 C 5.867188 -2.882812 6.253906 -2.6875 6.828125 -2.6875 C 7.410156 -2.6875 7.78125 -2.882812 7.9375 -3.28125 C 8.101562 -3.6875 8.1875 -4.257812 8.1875 -5 L 8.1875 -7 L 12.28125 -7 L 12.28125 -5.359375 C 12.28125 -3.578125 11.863281 -2.191406 11.03125 -1.203125 C 10.207031 -0.210938 8.804688 0.28125 6.828125 0.28125 Z M 6.828125 0.28125 "/></g></g></g><g fill="#001d3d" fill-opacity="1"><g transform="translate(76.554577, 37.923948)"><g><path d="M 1.46875 -18.953125 L 5.65625 -18.953125 L 5.65625 -11.28125 L 8.578125 -11.28125 L 8.578125 -18.953125 L 12.796875 -18.953125 L 12.796875 0 L 8.578125 0 L 8.578125 -8.28125 L 5.65625 -8.28125 L 5.65625 0 L 1.46875 0 Z M 1.46875 -18.953125 "/></g></g></g><g fill="#001d3d" fill-opacity="1"><g transform="translate(90.821327, 37.923948)"><g><path d="M 4.0625 -18.953125 L 8.84375 -18.953125 L 12.375 0 L 8.515625 0 L 7.875 -4 L 5.09375 -4 L 4.4375 0 L 0.484375 0 Z M 7.484375 -6.5 L 6.484375 -13.890625 L 5.46875 -6.5 Z M 7.484375 -6.5 "/></g></g></g><g fill="#001d3d" fill-opacity="1"><g transform="translate(103.708175, 37.923948)"><g><path d="M 1.40625 -18.953125 L 6.625 -18.953125 C 8.695312 -18.953125 10.257812 -18.582031 11.3125 -17.84375 C 12.375 -17.113281 12.90625 -15.8125 12.90625 -13.9375 C 12.90625 -12.675781 12.738281 -11.671875 12.40625 -10.921875 C 12.082031 -10.171875 11.476562 -9.585938 10.59375 -9.171875 L 13.1875 0 L 8.859375 0 L 6.78125 -8.484375 L 5.59375 -8.484375 L 5.59375 0 L 1.40625 0 Z M 6.765625 -10.90625 C 7.597656 -10.90625 8.179688 -11.125 8.515625 -11.5625 C 8.859375 -12.007812 9.03125 -12.675781 9.03125 -13.5625 C 9.03125 -14.425781 8.875 -15.070312 8.5625 -15.5 C 8.25 -15.925781 7.710938 -16.140625 6.953125 -16.140625 L 5.59375 -16.140625 L 5.59375 -10.90625 Z M 6.765625 -10.90625 "/></g></g></g><g fill="#001d3d" fill-opacity="1"><g transform="translate(117.741044, 37.923948)"><g><path d="M 1.40625 -18.953125 L 6.203125 -18.953125 C 7.835938 -18.953125 9.113281 -18.75 10.03125 -18.34375 C 10.957031 -17.9375 11.609375 -17.300781 11.984375 -16.4375 C 12.367188 -15.570312 12.5625 -14.410156 12.5625 -12.953125 L 12.5625 -6.078125 C 12.5625 -4.617188 12.367188 -3.453125 11.984375 -2.578125 C 11.609375 -1.703125 10.960938 -1.050781 10.046875 -0.625 C 9.128906 -0.207031 7.863281 0 6.25 0 L 1.40625 0 Z M 6.25 -2.90625 C 6.851562 -2.90625 7.296875 -2.992188 7.578125 -3.171875 C 7.867188 -3.347656 8.050781 -3.601562 8.125 -3.9375 C 8.207031 -4.269531 8.25 -4.765625 8.25 -5.421875 L 8.25 -13.6875 C 8.25 -14.289062 8.207031 -14.753906 8.125 -15.078125 C 8.039062 -15.398438 7.851562 -15.632812 7.5625 -15.78125 C 7.28125 -15.9375 6.832031 -16.015625 6.21875 -16.015625 L 5.59375 -16.015625 L 5.59375 -2.90625 Z M 6.25 -2.90625 "/></g></g></g><g fill="#0088ce" fill-opacity="1"><g transform="translate(34.296735, 55.878508)"><g><path d="M 2.578125 0.109375 C 1.796875 0.109375 1.242188 -0.09375 0.921875 -0.5 C 0.597656 -0.914062 0.4375 -1.507812 0.4375 -2.28125 L 0.4375 -4.859375 C 0.4375 -5.640625 0.597656 -6.234375 0.921875 -6.640625 C 1.242188 -7.046875 1.796875 -7.25 2.578125 -7.25 C 3.328125 -7.25 3.859375 -7.066406 4.171875 -6.703125 C 4.484375 -6.347656 4.640625 -5.84375 4.640625 -5.1875 L 4.640625 -4.5625 L 3.09375 -4.5625 L 3.09375 -5.28125 C 3.09375 -5.550781 3.0625 -5.757812 3 -5.90625 C 2.9375 -6.0625 2.796875 -6.140625 2.578125 -6.140625 C 2.359375 -6.140625 2.210938 -6.0625 2.140625 -5.90625 C 2.066406 -5.75 2.03125 -5.53125 2.03125 -5.25 L 2.03125 -1.890625 C 2.03125 -1.609375 2.066406 -1.390625 2.140625 -1.234375 C 2.210938 -1.085938 2.359375 -1.015625 2.578125 -1.015625 C 2.796875 -1.015625 2.9375 -1.085938 3 -1.234375 C 3.0625 -1.390625 3.09375 -1.609375 3.09375 -1.890625 L 3.09375 -2.640625 L 4.640625 -2.640625 L 4.640625 -2.015625 C 4.640625 -1.347656 4.484375 -0.828125 4.171875 -0.453125 C 3.859375 -0.078125 3.328125 0.109375 2.578125 0.109375 Z M 2.578125 0.109375 "/></g></g></g><g fill="#0088ce" fill-opacity="1"><g transform="translate(39.884321, 55.878508)"><g><path d="M 2.578125 0.109375 C 1.804688 0.109375 1.253906 -0.0859375 0.921875 -0.484375 C 0.597656 -0.878906 0.4375 -1.46875 0.4375 -2.25 L 0.4375 -4.90625 C 0.4375 -5.6875 0.597656 -6.269531 0.921875 -6.65625 C 1.253906 -7.050781 1.804688 -7.25 2.578125 -7.25 C 3.359375 -7.25 3.910156 -7.050781 4.234375 -6.65625 C 4.566406 -6.257812 4.734375 -5.675781 4.734375 -4.90625 L 4.734375 -2.25 C 4.734375 -1.46875 4.566406 -0.878906 4.234375 -0.484375 C 3.910156 -0.0859375 3.359375 0.109375 2.578125 0.109375 Z M 2.578125 -1.015625 C 2.796875 -1.015625 2.941406 -1.085938 3.015625 -1.234375 C 3.085938 -1.390625 3.125 -1.597656 3.125 -1.859375 L 3.125 -5.296875 C 3.125 -5.554688 3.085938 -5.757812 3.015625 -5.90625 C 2.941406 -6.0625 2.796875 -6.140625 2.578125 -6.140625 C 2.367188 -6.140625 2.226562 -6.0625 2.15625 -5.90625 C 2.082031 -5.757812 2.046875 -5.554688 2.046875 -5.296875 L 2.046875 -1.859375 C 2.046875 -1.597656 2.078125 -1.390625 2.140625 -1.234375 C 2.210938 -1.085938 2.359375 -1.015625 2.578125 -1.015625 Z M 2.578125 -1.015625 "/></g></g></g><g fill="#0088ce" fill-opacity="1"><g transform="translate(45.674937, 55.878508)"><g><path d="M 0.625 -7.15625 L 2.328125 -7.15625 L 3.109375 -3 L 3.953125 -7.15625 L 5.59375 -7.15625 L 5.71875 0 L 4.59375 0 L 4.453125 -4.765625 L 3.625 0 L 2.625 0 L 1.75 -4.796875 L 1.640625 0 L 0.5 0 Z M 0.625 -7.15625 "/></g></g></g><g fill="#0088ce" fill-opacity="1"><g transform="translate(52.507157, 55.878508)"><g><path d="M 0.625 -7.15625 L 2.328125 -7.15625 L 3.109375 -3 L 3.953125 -7.15625 L 5.59375 -7.15625 L 5.71875 0 L 4.59375 0 L 4.453125 -4.765625 L 3.625 0 L 2.625 0 L 1.75 -4.796875 L 1.640625 0 L 0.5 0 Z M 0.625 -7.15625 "/></g></g></g><g fill="#0088ce" fill-opacity="1"><g transform="translate(59.339375, 55.878508)"><g><path d="M 0.53125 -7.15625 L 2.125 -7.15625 L 2.125 0 L 0.53125 0 Z M 0.53125 -7.15625 "/></g></g></g><g fill="#0088ce" fill-opacity="1"><g transform="translate(62.614249, 55.878508)"><g><path d="M 2.421875 0.109375 C 1.742188 0.109375 1.238281 -0.0703125 0.90625 -0.4375 C 0.570312 -0.800781 0.394531 -1.375 0.375 -2.15625 L 1.71875 -2.359375 C 1.726562 -1.910156 1.785156 -1.585938 1.890625 -1.390625 C 1.992188 -1.191406 2.144531 -1.09375 2.34375 -1.09375 C 2.613281 -1.09375 2.75 -1.265625 2.75 -1.609375 C 2.75 -1.890625 2.679688 -2.128906 2.546875 -2.328125 C 2.421875 -2.523438 2.222656 -2.738281 1.953125 -2.96875 L 1.34375 -3.515625 C 1.039062 -3.773438 0.800781 -4.050781 0.625 -4.34375 C 0.457031 -4.632812 0.375 -4.976562 0.375 -5.375 C 0.375 -5.976562 0.550781 -6.441406 0.90625 -6.765625 C 1.269531 -7.085938 1.765625 -7.25 2.390625 -7.25 C 3.066406 -7.25 3.523438 -7.050781 3.765625 -6.65625 C 4.003906 -6.257812 4.132812 -5.78125 4.15625 -5.21875 L 2.796875 -5.046875 C 2.785156 -5.421875 2.75 -5.6875 2.6875 -5.84375 C 2.632812 -6.007812 2.515625 -6.09375 2.328125 -6.09375 C 2.191406 -6.09375 2.085938 -6.035156 2.015625 -5.921875 C 1.941406 -5.804688 1.90625 -5.675781 1.90625 -5.53125 C 1.90625 -5.289062 1.957031 -5.085938 2.0625 -4.921875 C 2.175781 -4.753906 2.351562 -4.566406 2.59375 -4.359375 L 3.1875 -3.84375 C 3.539062 -3.539062 3.8125 -3.222656 4 -2.890625 C 4.195312 -2.554688 4.296875 -2.15625 4.296875 -1.6875 C 4.296875 -1.351562 4.21875 -1.050781 4.0625 -0.78125 C 3.90625 -0.507812 3.6875 -0.289062 3.40625 -0.125 C 3.125 0.03125 2.796875 0.109375 2.421875 0.109375 Z M 2.421875 0.109375 "/></g></g></g><g fill="#0088ce" fill-opacity="1"><g transform="translate(67.769306, 55.878508)"><g><path d="M 2.421875 0.109375 C 1.742188 0.109375 1.238281 -0.0703125 0.90625 -0.4375 C 0.570312 -0.800781 0.394531 -1.375 0.375 -2.15625 L 1.71875 -2.359375 C 1.726562 -1.910156 1.785156 -1.585938 1.890625 -1.390625 C 1.992188 -1.191406 2.144531 -1.09375 2.34375 -1.09375 C 2.613281 -1.09375 2.75 -1.265625 2.75 -1.609375 C 2.75 -1.890625 2.679688 -2.128906 2.546875 -2.328125 C 2.421875 -2.523438 2.222656 -2.738281 1.953125 -2.96875 L 1.34375 -3.515625 C 1.039062 -3.773438 0.800781 -4.050781 0.625 -4.34375 C 0.457031 -4.632812 0.375 -4.976562 0.375 -5.375 C 0.375 -5.976562 0.550781 -6.441406 0.90625 -6.765625 C 1.269531 -7.085938 1.765625 -7.25 2.390625 -7.25 C 3.066406 -7.25 3.523438 -7.050781 3.765625 -6.65625 C 4.003906 -6.257812 4.132812 -5.78125 4.15625 -5.21875 L 2.796875 -5.046875 C 2.785156 -5.421875 2.75 -5.6875 2.6875 -5.84375 C 2.632812 -6.007812 2.515625 -6.09375 2.328125 -6.09375 C 2.191406 -6.09375 2.085938 -6.035156 2.015625 -5.921875 C 1.941406 -5.804688 1.90625 -5.675781 1.90625 -5.53125 C 1.90625 -5.289062 1.957031 -5.085938 2.0625 -4.921875 C 2.175781 -4.753906 2.351562 -4.566406 2.59375 -4.359375 L 3.1875 -3.84375 C 3.539062 -3.539062 3.8125 -3.222656 4 -2.890625 C 4.195312 -2.554688 4.296875 -2.15625 4.296875 -1.6875 C 4.296875 -1.351562 4.21875 -1.050781 4.0625 -0.78125 C 3.90625 -0.507812 3.6875 -0.289062 3.40625 -0.125 C 3.125 0.03125 2.796875 0.109375 2.421875 0.109375 Z M 2.421875 0.109375 "/></g></g></g><g fill="#0088ce" fill-opacity="1"><g transform="translate(72.924364, 55.878508)"><g><path d="M 0.53125 -7.15625 L 2.125 -7.15625 L 2.125 0 L 0.53125 0 Z M 0.53125 -7.15625 "/></g></g></g><g fill="#0088ce" fill-opacity="1"><g transform="translate(76.19924, 55.878508)"><g><path d="M 2.578125 0.109375 C 1.804688 0.109375 1.253906 -0.0859375 0.921875 -0.484375 C 0.597656 -0.878906 0.4375 -1.46875 0.4375 -2.25 L 0.4375 -4.90625 C 0.4375 -5.6875 0.597656 -6.269531 0.921875 -6.65625 C 1.253906 -7.050781 1.804688 -7.25 2.578125 -7.25 C 3.359375 -7.25 3.910156 -7.050781 4.234375 -6.65625 C 4.566406 -6.257812 4.734375 -5.675781 4.734375 -4.90625 L 4.734375 -2.25 C 4.734375 -1.46875 4.566406 -0.878906 4.234375 -0.484375 C 3.910156 -0.0859375 3.359375 0.109375 2.578125 0.109375 Z M 2.578125 -1.015625 C 2.796875 -1.015625 2.941406 -1.085938 3.015625 -1.234375 C 3.085938 -1.390625 3.125 -1.597656 3.125 -1.859375 L 3.125 -5.296875 C 3.125 -5.554688 3.085938 -5.757812 3.015625 -5.90625 C 2.941406 -6.0625 2.796875 -6.140625 2.578125 -6.140625 C 2.367188 -6.140625 2.226562 -6.0625 2.15625 -5.90625 C 2.082031 -5.757812 2.046875 -5.554688 2.046875 -5.296875 L 2.046875 -1.859375 C 2.046875 -1.597656 2.078125 -1.390625 2.140625 -1.234375 C 2.210938 -1.085938 2.359375 -1.015625 2.578125 -1.015625 Z M 2.578125 -1.015625 "/></g></g></g><g fill="#0088ce" fill-opacity="1"><g transform="translate(81.989858, 55.878508)"><g><path d="M 0.53125 -7.15625 L 1.640625 -7.15625 L 3.109375 -3.703125 L 3.109375 -7.15625 L 4.421875 -7.15625 L 4.421875 0 L 3.34375 0 L 1.875 -3.703125 L 1.875 0 L 0.53125 0 Z M 0.53125 -7.15625 "/></g></g></g><g fill="#0088ce" fill-opacity="1"><g transform="translate(87.559792, 55.878508)"><g><path d="M 0.53125 -7.15625 L 3.75 -7.15625 L 3.75 -6.078125 L 2.109375 -6.078125 L 2.109375 -4.296875 L 3.359375 -4.296875 L 3.359375 -3.203125 L 2.109375 -3.203125 L 2.109375 -1.0625 L 3.765625 -1.0625 L 3.765625 0 L 0.53125 0 Z M 0.53125 -7.15625 "/></g></g></g><g fill="#0088ce" fill-opacity="1"><g transform="translate(92.123429, 55.878508)"><g><path d="M 0.53125 -7.15625 L 2.5 -7.15625 C 3.28125 -7.15625 3.867188 -7.015625 4.265625 -6.734375 C 4.671875 -6.460938 4.875 -5.972656 4.875 -5.265625 C 4.875 -4.785156 4.8125 -4.40625 4.6875 -4.125 C 4.5625 -3.84375 4.332031 -3.617188 4 -3.453125 L 4.984375 0 L 3.34375 0 L 2.5625 -3.203125 L 2.109375 -3.203125 L 2.109375 0 L 0.53125 0 Z M 2.546875 -4.109375 C 2.867188 -4.109375 3.09375 -4.191406 3.21875 -4.359375 C 3.34375 -4.523438 3.40625 -4.78125 3.40625 -5.125 C 3.40625 -5.445312 3.34375 -5.6875 3.21875 -5.84375 C 3.101562 -6.007812 2.90625 -6.09375 2.625 -6.09375 L 2.109375 -6.09375 L 2.109375 -4.109375 Z M 2.546875 -4.109375 "/></g></g></g><g fill="#0088ce" fill-opacity="1"><g transform="translate(98.037627, 55.878508)"><g><path d="M 2.421875 0.109375 C 1.742188 0.109375 1.238281 -0.0703125 0.90625 -0.4375 C 0.570312 -0.800781 0.394531 -1.375 0.375 -2.15625 L 1.71875 -2.359375 C 1.726562 -1.910156 1.785156 -1.585938 1.890625 -1.390625 C 1.992188 -1.191406 2.144531 -1.09375 2.34375 -1.09375 C 2.613281 -1.09375 2.75 -1.265625 2.75 -1.609375 C 2.75 -1.890625 2.679688 -2.128906 2.546875 -2.328125 C 2.421875 -2.523438 2.222656 -2.738281 1.953125 -2.96875 L 1.34375 -3.515625 C 1.039062 -3.773438 0.800781 -4.050781 0.625 -4.34375 C 0.457031 -4.632812 0.375 -4.976562 0.375 -5.375 C 0.375 -5.976562 0.550781 -6.441406 0.90625 -6.765625 C 1.269531 -7.085938 1.765625 -7.25 2.390625 -7.25 C 3.066406 -7.25 3.523438 -7.050781 3.765625 -6.65625 C 4.003906 -6.257812 4.132812 -5.78125 4.15625 -5.21875 L 2.796875 -5.046875 C 2.785156 -5.421875 2.75 -5.6875 2.6875 -5.84375 C 2.632812 -6.007812 2.515625 -6.09375 2.328125 -6.09375 C 2.191406 -6.09375 2.085938 -6.035156 2.015625 -5.921875 C 1.941406 -5.804688 1.90625 -5.675781 1.90625 -5.53125 C 1.90625 -5.289062 1.957031 -5.085938 2.0625 -4.921875 C 2.175781 -4.753906 2.351562 -4.566406 2.59375 -4.359375 L 3.1875 -3.84375 C 3.539062 -3.539062 3.8125 -3.222656 4 -2.890625 C 4.195312 -2.554688 4.296875 -2.15625 4.296875 -1.6875 C 4.296875 -1.351562 4.21875 -1.050781 4.0625 -0.78125 C 3.90625 -0.507812 3.6875 -0.289062 3.40625 -0.125 C 3.125 0.03125 2.796875 0.109375 2.421875 0.109375 Z M 2.421875 0.109375 "/></g></g></g><g fill="#0088ce" fill-opacity="1"><g transform="translate(103.192686, 55.878508)"><g/></g></g><g fill="#0088ce" fill-opacity="1"><g transform="translate(106.070336, 55.878508)"><g><path d="M 2.578125 0.109375 C 1.804688 0.109375 1.253906 -0.0859375 0.921875 -0.484375 C 0.597656 -0.878906 0.4375 -1.46875 0.4375 -2.25 L 0.4375 -4.90625 C 0.4375 -5.6875 0.597656 -6.269531 0.921875 -6.65625 C 1.253906 -7.050781 1.804688 -7.25 2.578125 -7.25 C 3.359375 -7.25 3.910156 -7.050781 4.234375 -6.65625 C 4.566406 -6.257812 4.734375 -5.675781 4.734375 -4.90625 L 4.734375 -2.25 C 4.734375 -1.46875 4.566406 -0.878906 4.234375 -0.484375 C 3.910156 -0.0859375 3.359375 0.109375 2.578125 0.109375 Z M 2.578125 -1.015625 C 2.796875 -1.015625 2.941406 -1.085938 3.015625 -1.234375 C 3.085938 -1.390625 3.125 -1.597656 3.125 -1.859375 L 3.125 -5.296875 C 3.125 -5.554688 3.085938 -5.757812 3.015625 -5.90625 C 2.941406 -6.0625 2.796875 -6.140625 2.578125 -6.140625 C 2.367188 -6.140625 2.226562 -6.0625 2.15625 -5.90625 C 2.082031 -5.757812 2.046875 -5.554688 2.046875 -5.296875 L 2.046875 -1.859375 C 2.046875 -1.597656 2.078125 -1.390625 2.140625 -1.234375 C 2.210938 -1.085938 2.359375 -1.015625 2.578125 -1.015625 Z M 2.578125 -1.015625 "/></g></g></g><g fill="#0088ce" fill-opacity="1"><g transform="translate(111.86095, 55.878508)"><g><path d="M 0.53125 -7.15625 L 3.625 -7.15625 L 3.625 -6.078125 L 2.109375 -6.078125 L 2.109375 -4.28125 L 3.421875 -4.28125 L 3.421875 -3.171875 L 2.109375 -3.171875 L 2.109375 0 L 0.53125 0 Z M 0.53125 -7.15625 "/></g></g></g><g fill="#0088ce" fill-opacity="1"><g transform="translate(43.908318, 66.912434)"><g><path d="M 0.53125 -7.15625 L 2.9375 -7.15625 C 3.5625 -7.15625 4.03125 -6.972656 4.34375 -6.609375 C 4.65625 -6.253906 4.8125 -5.742188 4.8125 -5.078125 C 4.8125 -4.304688 4.628906 -3.769531 4.265625 -3.46875 C 3.898438 -3.175781 3.394531 -3.03125 2.75 -3.03125 L 2.109375 -3.03125 L 2.109375 0 L 0.53125 0 Z M 2.640625 -4.140625 C 2.910156 -4.140625 3.09375 -4.210938 3.1875 -4.359375 C 3.28125 -4.503906 3.328125 -4.753906 3.328125 -5.109375 C 3.328125 -5.421875 3.28125 -5.648438 3.1875 -5.796875 C 3.101562 -5.953125 2.914062 -6.03125 2.625 -6.03125 L 2.109375 -6.03125 L 2.109375 -4.140625 Z M 2.640625 -4.140625 "/></g></g></g><g fill="#0088ce" fill-opacity="1"><g transform="translate(49.566525, 66.912434)"><g><path d="M 2.59375 0.109375 C 2.0625 0.109375 1.640625 0.0195312 1.328125 -0.15625 C 1.015625 -0.332031 0.796875 -0.585938 0.671875 -0.921875 C 0.546875 -1.265625 0.484375 -1.695312 0.484375 -2.21875 L 0.484375 -7.15625 L 2.046875 -7.15625 L 2.046875 -1.984375 C 2.046875 -1.691406 2.082031 -1.457031 2.15625 -1.28125 C 2.226562 -1.113281 2.375 -1.03125 2.59375 -1.03125 C 2.820312 -1.03125 2.96875 -1.113281 3.03125 -1.28125 C 3.101562 -1.457031 3.140625 -1.691406 3.140625 -1.984375 L 3.140625 -7.15625 L 4.71875 -7.15625 L 4.71875 -2.21875 C 4.71875 -1.695312 4.648438 -1.265625 4.515625 -0.921875 C 4.390625 -0.585938 4.171875 -0.332031 3.859375 -0.15625 C 3.554688 0.0195312 3.132812 0.109375 2.59375 0.109375 Z M 2.59375 0.109375 "/></g></g></g><g fill="#0088ce" fill-opacity="1"><g transform="translate(55.374794, 66.912434)"><g><path d="M 0.53125 -7.15625 L 2.390625 -7.15625 C 2.859375 -7.15625 3.253906 -7.101562 3.578125 -7 C 3.898438 -6.90625 4.160156 -6.71875 4.359375 -6.4375 C 4.566406 -6.164062 4.671875 -5.78125 4.671875 -5.28125 C 4.671875 -4.851562 4.578125 -4.519531 4.390625 -4.28125 C 4.210938 -4.050781 3.957031 -3.90625 3.625 -3.84375 C 4.03125 -3.789062 4.34375 -3.613281 4.5625 -3.3125 C 4.78125 -3.019531 4.890625 -2.625 4.890625 -2.125 C 4.890625 -0.707031 4.171875 0 2.734375 0 L 0.53125 0 Z M 2.421875 -4.296875 C 2.753906 -4.296875 2.976562 -4.367188 3.09375 -4.515625 C 3.21875 -4.671875 3.28125 -4.910156 3.28125 -5.234375 C 3.28125 -5.515625 3.203125 -5.726562 3.046875 -5.875 C 2.898438 -6.019531 2.679688 -6.09375 2.390625 -6.09375 L 2.109375 -6.09375 L 2.109375 -4.296875 Z M 2.453125 -1.109375 C 2.785156 -1.109375 3.019531 -1.191406 3.15625 -1.359375 C 3.289062 -1.523438 3.359375 -1.785156 3.359375 -2.140625 C 3.359375 -2.546875 3.289062 -2.832031 3.15625 -3 C 3.019531 -3.164062 2.78125 -3.25 2.4375 -3.25 L 2.109375 -3.25 L 2.109375 -1.109375 Z M 2.453125 -1.109375 "/></g></g></g><g fill="#0088ce" fill-opacity="1"><g transform="translate(61.183064, 66.912434)"><g><path d="M 0.53125 -7.15625 L 2.109375 -7.15625 L 2.109375 -1.0625 L 3.75 -1.0625 L 3.75 0 L 0.53125 0 Z M 0.53125 -7.15625 "/></g></g></g><g fill="#0088ce" fill-opacity="1"><g transform="translate(65.711393, 66.912434)"><g><path d="M 0.53125 -7.15625 L 2.125 -7.15625 L 2.125 0 L 0.53125 0 Z M 0.53125 -7.15625 "/></g></g></g><g fill="#0088ce" fill-opacity="1"><g transform="translate(68.986267, 66.912434)"><g><path d="M 2.578125 0.109375 C 1.796875 0.109375 1.242188 -0.09375 0.921875 -0.5 C 0.597656 -0.914062 0.4375 -1.507812 0.4375 -2.28125 L 0.4375 -4.859375 C 0.4375 -5.640625 0.597656 -6.234375 0.921875 -6.640625 C 1.242188 -7.046875 1.796875 -7.25 2.578125 -7.25 C 3.328125 -7.25 3.859375 -7.066406 4.171875 -6.703125 C 4.484375 -6.347656 4.640625 -5.84375 4.640625 -5.1875 L 4.640625 -4.5625 L 3.09375 -4.5625 L 3.09375 -5.28125 C 3.09375 -5.550781 3.0625 -5.757812 3 -5.90625 C 2.9375 -6.0625 2.796875 -6.140625 2.578125 -6.140625 C 2.359375 -6.140625 2.210938 -6.0625 2.140625 -5.90625 C 2.066406 -5.75 2.03125 -5.53125 2.03125 -5.25 L 2.03125 -1.890625 C 2.03125 -1.609375 2.066406 -1.390625 2.140625 -1.234375 C 2.210938 -1.085938 2.359375 -1.015625 2.578125 -1.015625 C 2.796875 -1.015625 2.9375 -1.085938 3 -1.234375 C 3.0625 -1.390625 3.09375 -1.609375 3.09375 -1.890625 L 3.09375 -2.640625 L 4.640625 -2.640625 L 4.640625 -2.015625 C 4.640625 -1.347656 4.484375 -0.828125 4.171875 -0.453125 C 3.859375 -0.078125 3.328125 0.109375 2.578125 0.109375 Z M 2.578125 0.109375 "/></g></g></g><g fill="#0088ce" fill-opacity="1"><g transform="translate(74.573852, 66.912434)"><g/></g></g><g fill="#0088ce" fill-opacity="1"><g transform="translate(77.451504, 66.912434)"><g><path d="M 0.234375 -7.15625 L 1.578125 -7.15625 L 2 -2.984375 L 2.546875 -7.140625 L 3.59375 -7.140625 L 4.15625 -3.015625 L 4.59375 -7.15625 L 5.921875 -7.15625 L 5.0625 0 L 3.6875 0 L 3.078125 -4.3125 L 2.5 0 L 1.109375 0 Z M 0.234375 -7.15625 "/></g></g></g><g fill="#0088ce" fill-opacity="1"><g transform="translate(84.221935, 66.912434)"><g><path d="M 2.578125 0.109375 C 1.804688 0.109375 1.253906 -0.0859375 0.921875 -0.484375 C 0.597656 -0.878906 0.4375 -1.46875 0.4375 -2.25 L 0.4375 -4.90625 C 0.4375 -5.6875 0.597656 -6.269531 0.921875 -6.65625 C 1.253906 -7.050781 1.804688 -7.25 2.578125 -7.25 C 3.359375 -7.25 3.910156 -7.050781 4.234375 -6.65625 C 4.566406 -6.257812 4.734375 -5.675781 4.734375 -4.90625 L 4.734375 -2.25 C 4.734375 -1.46875 4.566406 -0.878906 4.234375 -0.484375 C 3.910156 -0.0859375 3.359375 0.109375 2.578125 0.109375 Z M 2.578125 -1.015625 C 2.796875 -1.015625 2.941406 -1.085938 3.015625 -1.234375 C 3.085938 -1.390625 3.125 -1.597656 3.125 -1.859375 L 3.125 -5.296875 C 3.125 -5.554688 3.085938 -5.757812 3.015625 -5.90625 C 2.941406 -6.0625 2.796875 -6.140625 2.578125 -6.140625 C 2.367188 -6.140625 2.226562 -6.0625 2.15625 -5.90625 C 2.082031 -5.757812 2.046875 -5.554688 2.046875 -5.296875 L 2.046875 -1.859375 C 2.046875 -1.597656 2.078125 -1.390625 2.140625 -1.234375 C 2.210938 -1.085938 2.359375 -1.015625 2.578125 -1.015625 Z M 2.578125 -1.015625 "/></g></g></g><g fill="#0088ce" fill-opacity="1"><g transform="translate(90.012553, 66.912434)"><g><path d="M 0.53125 -7.15625 L 2.5 -7.15625 C 3.28125 -7.15625 3.867188 -7.015625 4.265625 -6.734375 C 4.671875 -6.460938 4.875 -5.972656 4.875 -5.265625 C 4.875 -4.785156 4.8125 -4.40625 4.6875 -4.125 C 4.5625 -3.84375 4.332031 -3.617188 4 -3.453125 L 4.984375 0 L 3.34375 0 L 2.5625 -3.203125 L 2.109375 -3.203125 L 2.109375 0 L 0.53125 0 Z M 2.546875 -4.109375 C 2.867188 -4.109375 3.09375 -4.191406 3.21875 -4.359375 C 3.34375 -4.523438 3.40625 -4.78125 3.40625 -5.125 C 3.40625 -5.445312 3.34375 -5.6875 3.21875 -5.84375 C 3.101562 -6.007812 2.90625 -6.09375 2.625 -6.09375 L 2.109375 -6.09375 L 2.109375 -4.109375 Z M 2.546875 -4.109375 "/></g></g></g><g fill="#0088ce" fill-opacity="1"><g transform="translate(95.92675, 66.912434)"><g><path d="M 0.53125 -7.15625 L 2.109375 -7.15625 L 2.109375 -4.234375 L 3.3125 -7.15625 L 4.859375 -7.15625 L 3.53125 -3.921875 L 4.921875 0 L 3.3125 0 L 2.28125 -3.15625 L 2.109375 -2.875 L 2.109375 0 L 0.53125 0 Z M 0.53125 -7.15625 "/></g></g></g><g fill="#0088ce" fill-opacity="1"><g transform="translate(101.549652, 66.912434)"><g><path d="M 2.421875 0.109375 C 1.742188 0.109375 1.238281 -0.0703125 0.90625 -0.4375 C 0.570312 -0.800781 0.394531 -1.375 0.375 -2.15625 L 1.71875 -2.359375 C 1.726562 -1.910156 1.785156 -1.585938 1.890625 -1.390625 C 1.992188 -1.191406 2.144531 -1.09375 2.34375 -1.09375 C 2.613281 -1.09375 2.75 -1.265625 2.75 -1.609375 C 2.75 -1.890625 2.679688 -2.128906 2.546875 -2.328125 C 2.421875 -2.523438 2.222656 -2.738281 1.953125 -2.96875 L 1.34375 -3.515625 C 1.039062 -3.773438 0.800781 -4.050781 0.625 -4.34375 C 0.457031 -4.632812 0.375 -4.976562 0.375 -5.375 C 0.375 -5.976562 0.550781 -6.441406 0.90625 -6.765625 C 1.269531 -7.085938 1.765625 -7.25 2.390625 -7.25 C 3.066406 -7.25 3.523438 -7.050781 3.765625 -6.65625 C 4.003906 -6.257812 4.132812 -5.78125 4.15625 -5.21875 L 2.796875 -5.046875 C 2.785156 -5.421875 2.75 -5.6875 2.6875 -5.84375 C 2.632812 -6.007812 2.515625 -6.09375 2.328125 -6.09375 C 2.191406 -6.09375 2.085938 -6.035156 2.015625 -5.921875 C 1.941406 -5.804688 1.90625 -5.675781 1.90625 -5.53125 C 1.90625 -5.289062 1.957031 -5.085938 2.0625 -4.921875 C 2.175781 -4.753906 2.351562 -4.566406 2.59375 -4.359375 L 3.1875 -3.84375 C 3.539062 -3.539062 3.8125 -3.222656 4 -2.890625 C 4.195312 -2.554688 4.296875 -2.15625 4.296875 -1.6875 C 4.296875 -1.351562 4.21875 -1.050781 4.0625 -0.78125 C 3.90625 -0.507812 3.6875 -0.289062 3.40625 -0.125 C 3.125 0.03125 2.796875 0.109375 2.421875 0.109375 Z M 2.421875 0.109375 "/></g></g></g><g clip-path="url(#82bd6bd21a)"><path fill="#001d3d" d="M 16.339844 10.65625 L 133.597656 10.65625 L 133.597656 14.023438 L 16.339844 14.023438 Z M 16.339844 10.65625 " fill-opacity="1" fill-rule="nonzero"/></g><g clip-path="url(#63ea84a4cb)"><path fill="#001d3d" d="M 134.164062 44.949219 L 16.90625 44.949219 L 16.90625 41.585938 L 134.164062 41.585938 Z M 134.164062 44.949219 " fill-opacity="1" fill-rule="nonzero"/></g></svg>