<svg xmlns="http://www.w3.org/2000/svg" xmlns:xlink="http://www.w3.org/1999/xlink" width="400" zoomAndPan="magnify" viewBox="0 0 300 187.499995" height="250" preserveAspectRatio="xMidYMid meet" version="1.0"><defs><g/><clipPath id="a86bf3b14b"><path d="M 47.058594 42.882812 L 252.828125 42.882812 L 252.828125 48.789062 L 47.058594 48.789062 Z M 47.058594 42.882812 " clip-rule="nonzero"/></clipPath><clipPath id="813c146878"><path d="M 48.054688 97.15625 L 253.824219 97.15625 L 253.824219 103.0625 L 48.054688 103.0625 Z M 48.054688 97.15625 " clip-rule="nonzero"/></clipPath></defs><g fill="#001d3d" fill-opacity="1"><g transform="translate(50.943831, 90.73223)"><g><path d="M 2.46875 -33.25 L 13.625 -33.25 C 16.550781 -33.25 18.738281 -32.421875 20.1875 -30.765625 C 21.644531 -29.109375 22.375 -26.722656 22.375 -23.609375 C 22.375 -20.046875 21.53125 -17.570312 19.84375 -16.1875 C 18.164062 -14.8125 15.804688 -14.125 12.765625 -14.125 L 9.8125 -14.125 L 9.8125 0 L 2.46875 0 Z M 12.265625 -19.25 C 13.554688 -19.25 14.410156 -19.585938 14.828125 -20.265625 C 15.253906 -20.953125 15.46875 -22.101562 15.46875 -23.71875 C 15.46875 -25.195312 15.265625 -26.289062 14.859375 -27 C 14.453125 -27.71875 13.578125 -28.078125 12.234375 -28.078125 L 9.8125 -28.078125 L 9.8125 -19.25 Z M 12.265625 -19.25 "/></g></g></g><g fill="#001d3d" fill-opacity="1"><g transform="translate(74.378811, 90.73223)"><g><path d="M 2.46875 -33.25 L 11.609375 -33.25 C 15.253906 -33.25 18.003906 -32.601562 19.859375 -31.3125 C 21.722656 -30.03125 22.65625 -27.75 22.65625 -24.46875 C 22.65625 -22.25 22.367188 -20.484375 21.796875 -19.171875 C 21.222656 -17.859375 20.15625 -16.832031 18.59375 -16.09375 L 23.15625 0 L 15.5625 0 L 11.90625 -14.90625 L 9.8125 -14.90625 L 9.8125 0 L 2.46875 0 Z M 11.859375 -19.125 C 13.335938 -19.125 14.367188 -19.515625 14.953125 -20.296875 C 15.546875 -21.078125 15.84375 -22.25 15.84375 -23.8125 C 15.84375 -25.3125 15.566406 -26.4375 15.015625 -27.1875 C 14.472656 -27.945312 13.53125 -28.328125 12.1875 -28.328125 L 9.8125 -28.328125 L 9.8125 -19.125 Z M 11.859375 -19.125 "/></g></g></g><g fill="#001d3d" fill-opacity="1"><g transform="translate(99.004022, 90.73223)"><g><path d="M 2.5 -33.25 L 9.84375 -33.25 L 9.84375 0 L 2.5 0 Z M 2.5 -33.25 "/></g></g></g><g fill="#001d3d" fill-opacity="1"><g transform="translate(111.357666, 90.73223)"><g><path d="M 5.453125 -27.78125 L 0.453125 -27.78125 L 0.453125 -33.25 L 17.8125 -33.25 L 17.8125 -27.78125 L 12.84375 -27.78125 L 12.84375 0 L 5.453125 0 Z M 5.453125 -27.78125 "/></g></g></g><g fill="#001d3d" fill-opacity="1"><g transform="translate(129.621359, 90.73223)"><g><path d="M 11.984375 0.5 C 8.367188 0.5 5.800781 -0.453125 4.28125 -2.359375 C 2.769531 -4.265625 2.015625 -7.007812 2.015625 -10.59375 L 2.015625 -22.578125 C 2.015625 -26.242188 2.765625 -29.015625 4.265625 -30.890625 C 5.773438 -32.765625 8.347656 -33.703125 11.984375 -33.703125 C 15.460938 -33.703125 17.925781 -32.863281 19.375 -31.1875 C 20.820312 -29.519531 21.546875 -27.15625 21.546875 -24.09375 L 21.546875 -21.21875 L 14.359375 -21.21875 L 14.359375 -24.546875 C 14.359375 -25.828125 14.222656 -26.8125 13.953125 -27.5 C 13.679688 -28.1875 13.023438 -28.53125 11.984375 -28.53125 C 10.941406 -28.53125 10.253906 -28.164062 9.921875 -27.4375 C 9.597656 -26.71875 9.4375 -25.710938 9.4375 -24.421875 L 9.4375 -8.78125 C 9.4375 -7.46875 9.609375 -6.460938 9.953125 -5.765625 C 10.296875 -5.066406 10.972656 -4.71875 11.984375 -4.71875 C 12.992188 -4.71875 13.640625 -5.066406 13.921875 -5.765625 C 14.210938 -6.460938 14.359375 -7.46875 14.359375 -8.78125 L 14.359375 -12.265625 L 21.546875 -12.265625 L 21.546875 -9.40625 C 21.546875 -6.28125 20.820312 -3.847656 19.375 -2.109375 C 17.925781 -0.367188 15.460938 0.5 11.984375 0.5 Z M 11.984375 0.5 "/></g></g></g><g fill="#001d3d" fill-opacity="1"><g transform="translate(152.72801, 90.73223)"><g><path d="M 2.59375 -33.25 L 9.9375 -33.25 L 9.9375 -19.78125 L 15.0625 -19.78125 L 15.0625 -33.25 L 22.453125 -33.25 L 22.453125 0 L 15.0625 0 L 15.0625 -14.53125 L 9.9375 -14.53125 L 9.9375 0 L 2.59375 0 Z M 2.59375 -33.25 "/></g></g></g><g fill="#001d3d" fill-opacity="1"><g transform="translate(177.76364, 90.73223)"><g><path d="M 7.140625 -33.25 L 15.515625 -33.25 L 21.71875 0 L 14.9375 0 L 13.828125 -7.015625 L 8.953125 -7.015625 L 7.796875 0 L 0.859375 0 Z M 13.140625 -11.40625 L 11.375 -24.375 L 9.609375 -11.40625 Z M 13.140625 -11.40625 "/></g></g></g><g fill="#001d3d" fill-opacity="1"><g transform="translate(200.377784, 90.73223)"><g><path d="M 2.46875 -33.25 L 11.609375 -33.25 C 15.253906 -33.25 18.003906 -32.601562 19.859375 -31.3125 C 21.722656 -30.03125 22.65625 -27.75 22.65625 -24.46875 C 22.65625 -22.25 22.367188 -20.484375 21.796875 -19.171875 C 21.222656 -17.859375 20.15625 -16.832031 18.59375 -16.09375 L 23.15625 0 L 15.5625 0 L 11.90625 -14.90625 L 9.8125 -14.90625 L 9.8125 0 L 2.46875 0 Z M 11.859375 -19.125 C 13.335938 -19.125 14.367188 -19.515625 14.953125 -20.296875 C 15.546875 -21.078125 15.84375 -22.25 15.84375 -23.8125 C 15.84375 -25.3125 15.566406 -26.4375 15.015625 -27.1875 C 14.472656 -27.945312 13.53125 -28.328125 12.1875 -28.328125 L 9.8125 -28.328125 L 9.8125 -19.125 Z M 11.859375 -19.125 "/></g></g></g><g fill="#001d3d" fill-opacity="1"><g transform="translate(225.002995, 90.73223)"><g><path d="M 2.46875 -33.25 L 10.875 -33.25 C 13.75 -33.25 15.992188 -32.890625 17.609375 -32.171875 C 19.222656 -31.460938 20.363281 -30.347656 21.03125 -28.828125 C 21.707031 -27.316406 22.046875 -25.285156 22.046875 -22.734375 L 22.046875 -10.671875 C 22.046875 -8.097656 21.707031 -6.046875 21.03125 -4.515625 C 20.363281 -2.984375 19.226562 -1.847656 17.625 -1.109375 C 16.03125 -0.367188 13.804688 0 10.953125 0 L 2.46875 0 Z M 10.953125 -5.09375 C 12.023438 -5.09375 12.8125 -5.25 13.3125 -5.5625 C 13.820312 -5.875 14.144531 -6.320312 14.28125 -6.90625 C 14.414062 -7.5 14.484375 -8.367188 14.484375 -9.515625 L 14.484375 -24.015625 C 14.484375 -25.078125 14.40625 -25.890625 14.25 -26.453125 C 14.101562 -27.015625 13.773438 -27.429688 13.265625 -27.703125 C 12.765625 -27.972656 11.984375 -28.109375 10.921875 -28.109375 L 9.8125 -28.109375 L 9.8125 -5.09375 Z M 10.953125 -5.09375 "/></g></g></g><g fill="#0088ce" fill-opacity="1"><g transform="translate(78.572959, 122.239326)"><g><path d="M 4.515625 0.1875 C 3.160156 0.1875 2.195312 -0.171875 1.625 -0.890625 C 1.050781 -1.609375 0.765625 -2.644531 0.765625 -4 L 0.765625 -8.515625 C 0.765625 -9.898438 1.046875 -10.945312 1.609375 -11.65625 C 2.179688 -12.363281 3.148438 -12.71875 4.515625 -12.71875 C 5.828125 -12.71875 6.753906 -12.398438 7.296875 -11.765625 C 7.847656 -11.140625 8.125 -10.25 8.125 -9.09375 L 8.125 -8 L 5.421875 -8 L 5.421875 -9.265625 C 5.421875 -9.742188 5.367188 -10.113281 5.265625 -10.375 C 5.160156 -10.632812 4.910156 -10.765625 4.515625 -10.765625 C 4.128906 -10.765625 3.875 -10.625 3.75 -10.34375 C 3.625 -10.070312 3.5625 -9.695312 3.5625 -9.21875 L 3.5625 -3.3125 C 3.5625 -2.820312 3.625 -2.441406 3.75 -2.171875 C 3.882812 -1.910156 4.140625 -1.78125 4.515625 -1.78125 C 4.898438 -1.78125 5.144531 -1.910156 5.25 -2.171875 C 5.363281 -2.441406 5.421875 -2.820312 5.421875 -3.3125 L 5.421875 -4.625 L 8.125 -4.625 L 8.125 -3.546875 C 8.125 -2.367188 7.847656 -1.453125 7.296875 -0.796875 C 6.753906 -0.140625 5.828125 0.1875 4.515625 0.1875 Z M 4.515625 0.1875 "/></g></g></g><g fill="#0088ce" fill-opacity="1"><g transform="translate(88.378187, 122.239326)"><g><path d="M 4.515625 0.1875 C 3.171875 0.1875 2.207031 -0.160156 1.625 -0.859375 C 1.050781 -1.554688 0.765625 -2.585938 0.765625 -3.953125 L 0.765625 -8.609375 C 0.765625 -9.972656 1.050781 -11 1.625 -11.6875 C 2.207031 -12.375 3.171875 -12.71875 4.515625 -12.71875 C 5.878906 -12.71875 6.851562 -12.367188 7.4375 -11.671875 C 8.019531 -10.984375 8.3125 -9.960938 8.3125 -8.609375 L 8.3125 -3.953125 C 8.3125 -2.585938 8.019531 -1.554688 7.4375 -0.859375 C 6.851562 -0.160156 5.878906 0.1875 4.515625 0.1875 Z M 4.515625 -1.78125 C 4.910156 -1.78125 5.171875 -1.910156 5.296875 -2.171875 C 5.421875 -2.441406 5.484375 -2.800781 5.484375 -3.25 L 5.484375 -9.296875 C 5.484375 -9.753906 5.421875 -10.113281 5.296875 -10.375 C 5.171875 -10.632812 4.910156 -10.765625 4.515625 -10.765625 C 4.148438 -10.765625 3.90625 -10.628906 3.78125 -10.359375 C 3.65625 -10.097656 3.59375 -9.742188 3.59375 -9.296875 L 3.59375 -3.25 C 3.59375 -2.800781 3.648438 -2.441406 3.765625 -2.171875 C 3.878906 -1.910156 4.128906 -1.78125 4.515625 -1.78125 Z M 4.515625 -1.78125 "/></g></g></g><g fill="#0088ce" fill-opacity="1"><g transform="translate(98.539697, 122.239326)"><g><path d="M 1.09375 -12.546875 L 4.078125 -12.546875 L 5.453125 -5.25 L 6.9375 -12.546875 L 9.796875 -12.546875 L 10.015625 0 L 8.046875 0 L 7.8125 -8.34375 L 6.359375 0 L 4.609375 0 L 3.0625 -8.40625 L 2.875 0 L 0.875 0 Z M 1.09375 -12.546875 "/></g></g></g><g fill="#0088ce" fill-opacity="1"><g transform="translate(110.529038, 122.239326)"><g><path d="M 1.09375 -12.546875 L 4.078125 -12.546875 L 5.453125 -5.25 L 6.9375 -12.546875 L 9.796875 -12.546875 L 10.015625 0 L 8.046875 0 L 7.8125 -8.34375 L 6.359375 0 L 4.609375 0 L 3.0625 -8.40625 L 2.875 0 L 0.875 0 Z M 1.09375 -12.546875 "/></g></g></g><g fill="#0088ce" fill-opacity="1"><g transform="translate(122.518378, 122.239326)"><g><path d="M 0.9375 -12.546875 L 3.71875 -12.546875 L 3.71875 0 L 0.9375 0 Z M 0.9375 -12.546875 "/></g></g></g><g fill="#0088ce" fill-opacity="1"><g transform="translate(128.265204, 122.239326)"><g><path d="M 4.265625 0.1875 C 3.066406 0.1875 2.175781 -0.128906 1.59375 -0.765625 C 1.007812 -1.398438 0.695312 -2.410156 0.65625 -3.796875 L 3.015625 -4.15625 C 3.023438 -3.351562 3.117188 -2.78125 3.296875 -2.4375 C 3.484375 -2.09375 3.757812 -1.921875 4.125 -1.921875 C 4.582031 -1.921875 4.8125 -2.222656 4.8125 -2.828125 C 4.8125 -3.316406 4.703125 -3.734375 4.484375 -4.078125 C 4.265625 -4.429688 3.914062 -4.8125 3.4375 -5.21875 L 2.359375 -6.15625 C 1.816406 -6.613281 1.398438 -7.097656 1.109375 -7.609375 C 0.816406 -8.117188 0.671875 -8.726562 0.671875 -9.4375 C 0.671875 -10.488281 0.984375 -11.296875 1.609375 -11.859375 C 2.234375 -12.429688 3.09375 -12.71875 4.1875 -12.71875 C 5.375 -12.71875 6.179688 -12.367188 6.609375 -11.671875 C 7.035156 -10.984375 7.265625 -10.144531 7.296875 -9.15625 L 4.90625 -8.859375 C 4.882812 -9.503906 4.820312 -9.96875 4.71875 -10.25 C 4.625 -10.539062 4.414062 -10.6875 4.09375 -10.6875 C 3.851562 -10.6875 3.664062 -10.582031 3.53125 -10.375 C 3.40625 -10.175781 3.34375 -9.953125 3.34375 -9.703125 C 3.34375 -9.285156 3.4375 -8.929688 3.625 -8.640625 C 3.820312 -8.347656 4.128906 -8.019531 4.546875 -7.65625 L 5.59375 -6.734375 C 6.207031 -6.210938 6.6875 -5.65625 7.03125 -5.0625 C 7.375 -4.476562 7.546875 -3.78125 7.546875 -2.96875 C 7.546875 -2.382812 7.40625 -1.851562 7.125 -1.375 C 6.851562 -0.894531 6.46875 -0.515625 5.96875 -0.234375 C 5.476562 0.046875 4.910156 0.1875 4.265625 0.1875 Z M 4.265625 0.1875 "/></g></g></g><g fill="#0088ce" fill-opacity="1"><g transform="translate(137.31142, 122.239326)"><g><path d="M 4.265625 0.1875 C 3.066406 0.1875 2.175781 -0.128906 1.59375 -0.765625 C 1.007812 -1.398438 0.695312 -2.410156 0.65625 -3.796875 L 3.015625 -4.15625 C 3.023438 -3.351562 3.117188 -2.78125 3.296875 -2.4375 C 3.484375 -2.09375 3.757812 -1.921875 4.125 -1.921875 C 4.582031 -1.921875 4.8125 -2.222656 4.8125 -2.828125 C 4.8125 -3.316406 4.703125 -3.734375 4.484375 -4.078125 C 4.265625 -4.429688 3.914062 -4.8125 3.4375 -5.21875 L 2.359375 -6.15625 C 1.816406 -6.613281 1.398438 -7.097656 1.109375 -7.609375 C 0.816406 -8.117188 0.671875 -8.726562 0.671875 -9.4375 C 0.671875 -10.488281 0.984375 -11.296875 1.609375 -11.859375 C 2.234375 -12.429688 3.09375 -12.71875 4.1875 -12.71875 C 5.375 -12.71875 6.179688 -12.367188 6.609375 -11.671875 C 7.035156 -10.984375 7.265625 -10.144531 7.296875 -9.15625 L 4.90625 -8.859375 C 4.882812 -9.503906 4.820312 -9.96875 4.71875 -10.25 C 4.625 -10.539062 4.414062 -10.6875 4.09375 -10.6875 C 3.851562 -10.6875 3.664062 -10.582031 3.53125 -10.375 C 3.40625 -10.175781 3.34375 -9.953125 3.34375 -9.703125 C 3.34375 -9.285156 3.4375 -8.929688 3.625 -8.640625 C 3.820312 -8.347656 4.128906 -8.019531 4.546875 -7.65625 L 5.59375 -6.734375 C 6.207031 -6.210938 6.6875 -5.65625 7.03125 -5.0625 C 7.375 -4.476562 7.546875 -3.78125 7.546875 -2.96875 C 7.546875 -2.382812 7.40625 -1.851562 7.125 -1.375 C 6.851562 -0.894531 6.46875 -0.515625 5.96875 -0.234375 C 5.476562 0.046875 4.910156 0.1875 4.265625 0.1875 Z M 4.265625 0.1875 "/></g></g></g><g fill="#0088ce" fill-opacity="1"><g transform="translate(146.357637, 122.239326)"><g><path d="M 0.9375 -12.546875 L 3.71875 -12.546875 L 3.71875 0 L 0.9375 0 Z M 0.9375 -12.546875 "/></g></g></g><g fill="#0088ce" fill-opacity="1"><g transform="translate(152.104467, 122.239326)"><g><path d="M 4.515625 0.1875 C 3.171875 0.1875 2.207031 -0.160156 1.625 -0.859375 C 1.050781 -1.554688 0.765625 -2.585938 0.765625 -3.953125 L 0.765625 -8.609375 C 0.765625 -9.972656 1.050781 -11 1.625 -11.6875 C 2.207031 -12.375 3.171875 -12.71875 4.515625 -12.71875 C 5.878906 -12.71875 6.851562 -12.367188 7.4375 -11.671875 C 8.019531 -10.984375 8.3125 -9.960938 8.3125 -8.609375 L 8.3125 -3.953125 C 8.3125 -2.585938 8.019531 -1.554688 7.4375 -0.859375 C 6.851562 -0.160156 5.878906 0.1875 4.515625 0.1875 Z M 4.515625 -1.78125 C 4.910156 -1.78125 5.171875 -1.910156 5.296875 -2.171875 C 5.421875 -2.441406 5.484375 -2.800781 5.484375 -3.25 L 5.484375 -9.296875 C 5.484375 -9.753906 5.421875 -10.113281 5.296875 -10.375 C 5.171875 -10.632812 4.910156 -10.765625 4.515625 -10.765625 C 4.148438 -10.765625 3.90625 -10.628906 3.78125 -10.359375 C 3.65625 -10.097656 3.59375 -9.742188 3.59375 -9.296875 L 3.59375 -3.25 C 3.59375 -2.800781 3.648438 -2.441406 3.765625 -2.171875 C 3.878906 -1.910156 4.128906 -1.78125 4.515625 -1.78125 Z M 4.515625 -1.78125 "/></g></g></g><g fill="#0088ce" fill-opacity="1"><g transform="translate(162.26598, 122.239326)"><g><path d="M 0.921875 -12.546875 L 2.875 -12.546875 L 5.453125 -6.5 L 5.453125 -12.546875 L 7.734375 -12.546875 L 7.734375 0 L 5.875 0 L 3.296875 -6.5 L 3.296875 0 L 0.921875 0 Z M 0.921875 -12.546875 "/></g></g></g><g fill="#0088ce" fill-opacity="1"><g transform="translate(172.040233, 122.239326)"><g><path d="M 0.921875 -12.546875 L 6.5625 -12.546875 L 6.5625 -10.65625 L 3.703125 -10.65625 L 3.703125 -7.546875 L 5.890625 -7.546875 L 5.890625 -5.625 L 3.703125 -5.625 L 3.703125 -1.875 L 6.59375 -1.875 L 6.59375 0 L 0.921875 0 Z M 0.921875 -12.546875 "/></g></g></g><g fill="#0088ce" fill-opacity="1"><g transform="translate(180.048612, 122.239326)"><g><path d="M 0.921875 -12.546875 L 4.375 -12.546875 C 5.75 -12.546875 6.785156 -12.300781 7.484375 -11.8125 C 8.191406 -11.332031 8.546875 -10.472656 8.546875 -9.234375 C 8.546875 -8.390625 8.4375 -7.71875 8.21875 -7.21875 C 8 -6.726562 7.597656 -6.34375 7.015625 -6.0625 L 8.734375 0 L 5.875 0 L 4.484375 -5.625 L 3.703125 -5.625 L 3.703125 0 L 0.921875 0 Z M 4.46875 -7.21875 C 5.03125 -7.21875 5.421875 -7.363281 5.640625 -7.65625 C 5.867188 -7.945312 5.984375 -8.390625 5.984375 -8.984375 C 5.984375 -9.546875 5.878906 -9.96875 5.671875 -10.25 C 5.460938 -10.539062 5.101562 -10.6875 4.59375 -10.6875 L 3.703125 -10.6875 L 3.703125 -7.21875 Z M 4.46875 -7.21875 "/></g></g></g><g fill="#0088ce" fill-opacity="1"><g transform="translate(190.426986, 122.239326)"><g><path d="M 4.265625 0.1875 C 3.066406 0.1875 2.175781 -0.128906 1.59375 -0.765625 C 1.007812 -1.398438 0.695312 -2.410156 0.65625 -3.796875 L 3.015625 -4.15625 C 3.023438 -3.351562 3.117188 -2.78125 3.296875 -2.4375 C 3.484375 -2.09375 3.757812 -1.921875 4.125 -1.921875 C 4.582031 -1.921875 4.8125 -2.222656 4.8125 -2.828125 C 4.8125 -3.316406 4.703125 -3.734375 4.484375 -4.078125 C 4.265625 -4.429688 3.914062 -4.8125 3.4375 -5.21875 L 2.359375 -6.15625 C 1.816406 -6.613281 1.398438 -7.097656 1.109375 -7.609375 C 0.816406 -8.117188 0.671875 -8.726562 0.671875 -9.4375 C 0.671875 -10.488281 0.984375 -11.296875 1.609375 -11.859375 C 2.234375 -12.429688 3.09375 -12.71875 4.1875 -12.71875 C 5.375 -12.71875 6.179688 -12.367188 6.609375 -11.671875 C 7.035156 -10.984375 7.265625 -10.144531 7.296875 -9.15625 L 4.90625 -8.859375 C 4.882812 -9.503906 4.820312 -9.96875 4.71875 -10.25 C 4.625 -10.539062 4.414062 -10.6875 4.09375 -10.6875 C 3.851562 -10.6875 3.664062 -10.582031 3.53125 -10.375 C 3.40625 -10.175781 3.34375 -9.953125 3.34375 -9.703125 C 3.34375 -9.285156 3.4375 -8.929688 3.625 -8.640625 C 3.820312 -8.347656 4.128906 -8.019531 4.546875 -7.65625 L 5.59375 -6.734375 C 6.207031 -6.210938 6.6875 -5.65625 7.03125 -5.0625 C 7.375 -4.476562 7.546875 -3.78125 7.546875 -2.96875 C 7.546875 -2.382812 7.40625 -1.851562 7.125 -1.375 C 6.851562 -0.894531 6.46875 -0.515625 5.96875 -0.234375 C 5.476562 0.046875 4.910156 0.1875 4.265625 0.1875 Z M 4.265625 0.1875 "/></g></g></g><g fill="#0088ce" fill-opacity="1"><g transform="translate(199.473206, 122.239326)"><g/></g></g><g fill="#0088ce" fill-opacity="1"><g transform="translate(204.522974, 122.239326)"><g><path d="M 4.515625 0.1875 C 3.171875 0.1875 2.207031 -0.160156 1.625 -0.859375 C 1.050781 -1.554688 0.765625 -2.585938 0.765625 -3.953125 L 0.765625 -8.609375 C 0.765625 -9.972656 1.050781 -11 1.625 -11.6875 C 2.207031 -12.375 3.171875 -12.71875 4.515625 -12.71875 C 5.878906 -12.71875 6.851562 -12.367188 7.4375 -11.671875 C 8.019531 -10.984375 8.3125 -9.960938 8.3125 -8.609375 L 8.3125 -3.953125 C 8.3125 -2.585938 8.019531 -1.554688 7.4375 -0.859375 C 6.851562 -0.160156 5.878906 0.1875 4.515625 0.1875 Z M 4.515625 -1.78125 C 4.910156 -1.78125 5.171875 -1.910156 5.296875 -2.171875 C 5.421875 -2.441406 5.484375 -2.800781 5.484375 -3.25 L 5.484375 -9.296875 C 5.484375 -9.753906 5.421875 -10.113281 5.296875 -10.375 C 5.171875 -10.632812 4.910156 -10.765625 4.515625 -10.765625 C 4.148438 -10.765625 3.90625 -10.628906 3.78125 -10.359375 C 3.65625 -10.097656 3.59375 -9.742188 3.59375 -9.296875 L 3.59375 -3.25 C 3.59375 -2.800781 3.648438 -2.441406 3.765625 -2.171875 C 3.878906 -1.910156 4.128906 -1.78125 4.515625 -1.78125 Z M 4.515625 -1.78125 "/></g></g></g><g fill="#0088ce" fill-opacity="1"><g transform="translate(214.68448, 122.239326)"><g><path d="M 0.921875 -12.546875 L 6.34375 -12.546875 L 6.34375 -10.671875 L 3.703125 -10.671875 L 3.703125 -7.515625 L 6.015625 -7.515625 L 6.015625 -5.578125 L 3.703125 -5.578125 L 3.703125 0 L 0.921875 0 Z M 0.921875 -12.546875 "/></g></g></g><g fill="#0088ce" fill-opacity="1"><g transform="translate(95.439593, 141.60192)"><g><path d="M 0.921875 -12.546875 L 5.140625 -12.546875 C 6.242188 -12.546875 7.066406 -12.234375 7.609375 -11.609375 C 8.160156 -10.984375 8.4375 -10.082031 8.4375 -8.90625 C 8.4375 -7.5625 8.117188 -6.628906 7.484375 -6.109375 C 6.847656 -5.585938 5.957031 -5.328125 4.8125 -5.328125 L 3.703125 -5.328125 L 3.703125 0 L 0.921875 0 Z M 4.625 -7.265625 C 5.113281 -7.265625 5.4375 -7.390625 5.59375 -7.640625 C 5.757812 -7.898438 5.84375 -8.335938 5.84375 -8.953125 C 5.84375 -9.503906 5.765625 -9.914062 5.609375 -10.1875 C 5.453125 -10.457031 5.117188 -10.59375 4.609375 -10.59375 L 3.703125 -10.59375 L 3.703125 -7.265625 Z M 4.625 -7.265625 "/></g></g></g><g fill="#0088ce" fill-opacity="1"><g transform="translate(105.368748, 141.60192)"><g><path d="M 4.546875 0.1875 C 3.609375 0.1875 2.863281 0.0351562 2.3125 -0.265625 C 1.769531 -0.578125 1.390625 -1.03125 1.171875 -1.625 C 0.953125 -2.21875 0.84375 -2.972656 0.84375 -3.890625 L 0.84375 -12.546875 L 3.578125 -12.546875 L 3.578125 -3.46875 C 3.578125 -2.957031 3.640625 -2.550781 3.765625 -2.25 C 3.898438 -1.957031 4.160156 -1.8125 4.546875 -1.8125 C 4.941406 -1.8125 5.203125 -1.957031 5.328125 -2.25 C 5.453125 -2.550781 5.515625 -2.957031 5.515625 -3.46875 L 5.515625 -12.546875 L 8.265625 -12.546875 L 8.265625 -3.890625 C 8.265625 -2.972656 8.148438 -2.21875 7.921875 -1.625 C 7.703125 -1.03125 7.320312 -0.578125 6.78125 -0.265625 C 6.238281 0.0351562 5.492188 0.1875 4.546875 0.1875 Z M 4.546875 0.1875 "/></g></g></g><g fill="#0088ce" fill-opacity="1"><g transform="translate(115.561236, 141.60192)"><g><path d="M 0.921875 -12.546875 L 4.203125 -12.546875 C 5.015625 -12.546875 5.707031 -12.457031 6.28125 -12.28125 C 6.851562 -12.113281 7.3125 -11.785156 7.65625 -11.296875 C 8.007812 -10.816406 8.1875 -10.140625 8.1875 -9.265625 C 8.1875 -8.515625 8.023438 -7.929688 7.703125 -7.515625 C 7.390625 -7.109375 6.9375 -6.847656 6.34375 -6.734375 C 7.070312 -6.640625 7.625 -6.332031 8 -5.8125 C 8.382812 -5.300781 8.578125 -4.601562 8.578125 -3.71875 C 8.578125 -1.238281 7.3125 0 4.78125 0 L 0.921875 0 Z M 4.25 -7.53125 C 4.832031 -7.53125 5.226562 -7.660156 5.4375 -7.921875 C 5.65625 -8.191406 5.765625 -8.613281 5.765625 -9.1875 C 5.765625 -9.675781 5.628906 -10.046875 5.359375 -10.296875 C 5.085938 -10.554688 4.695312 -10.6875 4.1875 -10.6875 L 3.703125 -10.6875 L 3.703125 -7.53125 Z M 4.296875 -1.9375 C 4.878906 -1.9375 5.289062 -2.082031 5.53125 -2.375 C 5.78125 -2.664062 5.90625 -3.128906 5.90625 -3.765625 C 5.90625 -4.472656 5.78125 -4.972656 5.53125 -5.265625 C 5.289062 -5.554688 4.875 -5.703125 4.28125 -5.703125 L 3.703125 -5.703125 L 3.703125 -1.9375 Z M 4.296875 -1.9375 "/></g></g></g><g fill="#0088ce" fill-opacity="1"><g transform="translate(125.753726, 141.60192)"><g><path d="M 0.921875 -12.546875 L 3.703125 -12.546875 L 3.703125 -1.875 L 6.578125 -1.875 L 6.578125 0 L 0.921875 0 Z M 0.921875 -12.546875 "/></g></g></g><g fill="#0088ce" fill-opacity="1"><g transform="translate(133.700146, 141.60192)"><g><path d="M 0.9375 -12.546875 L 3.71875 -12.546875 L 3.71875 0 L 0.9375 0 Z M 0.9375 -12.546875 "/></g></g></g><g fill="#0088ce" fill-opacity="1"><g transform="translate(139.446972, 141.60192)"><g><path d="M 4.515625 0.1875 C 3.160156 0.1875 2.195312 -0.171875 1.625 -0.890625 C 1.050781 -1.609375 0.765625 -2.644531 0.765625 -4 L 0.765625 -8.515625 C 0.765625 -9.898438 1.046875 -10.945312 1.609375 -11.65625 C 2.179688 -12.363281 3.148438 -12.71875 4.515625 -12.71875 C 5.828125 -12.71875 6.753906 -12.398438 7.296875 -11.765625 C 7.847656 -11.140625 8.125 -10.25 8.125 -9.09375 L 8.125 -8 L 5.421875 -8 L 5.421875 -9.265625 C 5.421875 -9.742188 5.367188 -10.113281 5.265625 -10.375 C 5.160156 -10.632812 4.910156 -10.765625 4.515625 -10.765625 C 4.128906 -10.765625 3.875 -10.625 3.75 -10.34375 C 3.625 -10.070312 3.5625 -9.695312 3.5625 -9.21875 L 3.5625 -3.3125 C 3.5625 -2.820312 3.625 -2.441406 3.75 -2.171875 C 3.882812 -1.910156 4.140625 -1.78125 4.515625 -1.78125 C 4.898438 -1.78125 5.144531 -1.910156 5.25 -2.171875 C 5.363281 -2.441406 5.421875 -2.820312 5.421875 -3.3125 L 5.421875 -4.625 L 8.125 -4.625 L 8.125 -3.546875 C 8.125 -2.367188 7.847656 -1.453125 7.296875 -0.796875 C 6.753906 -0.140625 5.828125 0.1875 4.515625 0.1875 Z M 4.515625 0.1875 "/></g></g></g><g fill="#0088ce" fill-opacity="1"><g transform="translate(149.252199, 141.60192)"><g/></g></g><g fill="#0088ce" fill-opacity="1"><g transform="translate(154.30197, 141.60192)"><g><path d="M 0.421875 -12.546875 L 2.765625 -12.546875 L 3.515625 -5.234375 L 4.453125 -12.53125 L 6.296875 -12.53125 L 7.296875 -5.28125 L 8.046875 -12.546875 L 10.375 -12.546875 L 8.875 0 L 6.453125 0 L 5.390625 -7.578125 L 4.375 0 L 1.9375 0 Z M 0.421875 -12.546875 "/></g></g></g><g fill="#0088ce" fill-opacity="1"><g transform="translate(166.182883, 141.60192)"><g><path d="M 4.515625 0.1875 C 3.171875 0.1875 2.207031 -0.160156 1.625 -0.859375 C 1.050781 -1.554688 0.765625 -2.585938 0.765625 -3.953125 L 0.765625 -8.609375 C 0.765625 -9.972656 1.050781 -11 1.625 -11.6875 C 2.207031 -12.375 3.171875 -12.71875 4.515625 -12.71875 C 5.878906 -12.71875 6.851562 -12.367188 7.4375 -11.671875 C 8.019531 -10.984375 8.3125 -9.960938 8.3125 -8.609375 L 8.3125 -3.953125 C 8.3125 -2.585938 8.019531 -1.554688 7.4375 -0.859375 C 6.851562 -0.160156 5.878906 0.1875 4.515625 0.1875 Z M 4.515625 -1.78125 C 4.910156 -1.78125 5.171875 -1.910156 5.296875 -2.171875 C 5.421875 -2.441406 5.484375 -2.800781 5.484375 -3.25 L 5.484375 -9.296875 C 5.484375 -9.753906 5.421875 -10.113281 5.296875 -10.375 C 5.171875 -10.632812 4.910156 -10.765625 4.515625 -10.765625 C 4.148438 -10.765625 3.90625 -10.628906 3.78125 -10.359375 C 3.65625 -10.097656 3.59375 -9.742188 3.59375 -9.296875 L 3.59375 -3.25 C 3.59375 -2.800781 3.648438 -2.441406 3.765625 -2.171875 C 3.878906 -1.910156 4.128906 -1.78125 4.515625 -1.78125 Z M 4.515625 -1.78125 "/></g></g></g><g fill="#0088ce" fill-opacity="1"><g transform="translate(176.344397, 141.60192)"><g><path d="M 0.921875 -12.546875 L 4.375 -12.546875 C 5.75 -12.546875 6.785156 -12.300781 7.484375 -11.8125 C 8.191406 -11.332031 8.546875 -10.472656 8.546875 -9.234375 C 8.546875 -8.390625 8.4375 -7.71875 8.21875 -7.21875 C 8 -6.726562 7.597656 -6.34375 7.015625 -6.0625 L 8.734375 0 L 5.875 0 L 4.484375 -5.625 L 3.703125 -5.625 L 3.703125 0 L 0.921875 0 Z M 4.46875 -7.21875 C 5.03125 -7.21875 5.421875 -7.363281 5.640625 -7.65625 C 5.867188 -7.945312 5.984375 -8.390625 5.984375 -8.984375 C 5.984375 -9.546875 5.878906 -9.96875 5.671875 -10.25 C 5.460938 -10.539062 5.101562 -10.6875 4.59375 -10.6875 L 3.703125 -10.6875 L 3.703125 -7.21875 Z M 4.46875 -7.21875 "/></g></g></g><g fill="#0088ce" fill-opacity="1"><g transform="translate(186.72277, 141.60192)"><g><path d="M 0.921875 -12.546875 L 3.703125 -12.546875 L 3.703125 -7.421875 L 5.8125 -12.546875 L 8.515625 -12.546875 L 6.1875 -6.875 L 8.625 0 L 5.8125 0 L 4 -5.546875 L 3.703125 -5.046875 L 3.703125 0 L 0.921875 0 Z M 0.921875 -12.546875 "/></g></g></g><g fill="#0088ce" fill-opacity="1"><g transform="translate(196.589972, 141.60192)"><g><path d="M 4.265625 0.1875 C 3.066406 0.1875 2.175781 -0.128906 1.59375 -0.765625 C 1.007812 -1.398438 0.695312 -2.410156 0.65625 -3.796875 L 3.015625 -4.15625 C 3.023438 -3.351562 3.117188 -2.78125 3.296875 -2.4375 C 3.484375 -2.09375 3.757812 -1.921875 4.125 -1.921875 C 4.582031 -1.921875 4.8125 -2.222656 4.8125 -2.828125 C 4.8125 -3.316406 4.703125 -3.734375 4.484375 -4.078125 C 4.265625 -4.429688 3.914062 -4.8125 3.4375 -5.21875 L 2.359375 -6.15625 C 1.816406 -6.613281 1.398438 -7.097656 1.109375 -7.609375 C 0.816406 -8.117188 0.671875 -8.726562 0.671875 -9.4375 C 0.671875 -10.488281 0.984375 -11.296875 1.609375 -11.859375 C 2.234375 -12.429688 3.09375 -12.71875 4.1875 -12.71875 C 5.375 -12.71875 6.179688 -12.367188 6.609375 -11.671875 C 7.035156 -10.984375 7.265625 -10.144531 7.296875 -9.15625 L 4.90625 -8.859375 C 4.882812 -9.503906 4.820312 -9.96875 4.71875 -10.25 C 4.625 -10.539062 4.414062 -10.6875 4.09375 -10.6875 C 3.851562 -10.6875 3.664062 -10.582031 3.53125 -10.375 C 3.40625 -10.175781 3.34375 -9.953125 3.34375 -9.703125 C 3.34375 -9.285156 3.4375 -8.929688 3.625 -8.640625 C 3.820312 -8.347656 4.128906 -8.019531 4.546875 -7.65625 L 5.59375 -6.734375 C 6.207031 -6.210938 6.6875 -5.65625 7.03125 -5.0625 C 7.375 -4.476562 7.546875 -3.78125 7.546875 -2.96875 C 7.546875 -2.382812 7.40625 -1.851562 7.125 -1.375 C 6.851562 -0.894531 6.46875 -0.515625 5.96875 -0.234375 C 5.476562 0.046875 4.910156 0.1875 4.265625 0.1875 Z M 4.265625 0.1875 "/></g></g></g><g clip-path="url(#a86bf3b14b)"><path fill="#001d3d" d="M 47.058594 42.882812 L 252.824219 42.882812 L 252.824219 48.789062 L 47.058594 48.789062 Z M 47.058594 42.882812 " fill-opacity="1" fill-rule="nonzero"/></g><g clip-path="url(#813c146878)"><path fill="#001d3d" d="M 253.824219 103.0625 L 48.054688 103.0625 L 48.054688 97.15625 L 253.824219 97.15625 Z M 253.824219 103.0625 " fill-opacity="1" fill-rule="nonzero"/></g></svg>