<svg xmlns="http://www.w3.org/2000/svg" xmlns:xlink="http://www.w3.org/1999/xlink" width="400" zoomAndPan="magnify" viewBox="0 0 300 187.499995" height="250" preserveAspectRatio="xMidYMid meet" version="1.0"><defs><g/><clipPath id="439f29783a"><path d="M 71.789062 47.78125 L 228.265625 47.78125 L 228.265625 52.21875 L 71.789062 52.21875 Z M 71.789062 47.78125 " clip-rule="nonzero"/></clipPath><clipPath id="6f487eba6f"><path d="M 72.394531 98.417969 L 228.871094 98.417969 L 228.871094 102.855469 L 72.394531 102.855469 Z M 72.394531 98.417969 " clip-rule="nonzero"/></clipPath></defs><g fill="#001d3d" fill-opacity="1"><g transform="translate(74.741046, 91.666229)"><g><path d="M 1.875 -25.265625 L 10.359375 -25.265625 C 12.578125 -25.265625 14.238281 -24.632812 15.34375 -23.375 C 16.445312 -22.113281 17 -20.300781 17 -17.9375 C 17 -15.226562 16.359375 -13.347656 15.078125 -12.296875 C 13.796875 -11.253906 12.003906 -10.734375 9.703125 -10.734375 L 7.453125 -10.734375 L 7.453125 0 L 1.875 0 Z M 9.328125 -14.625 C 10.304688 -14.625 10.953125 -14.882812 11.265625 -15.40625 C 11.585938 -15.925781 11.75 -16.800781 11.75 -18.03125 C 11.75 -19.144531 11.59375 -19.972656 11.28125 -20.515625 C 10.976562 -21.054688 10.316406 -21.328125 9.296875 -21.328125 L 7.453125 -21.328125 L 7.453125 -14.625 Z M 9.328125 -14.625 "/></g></g></g><g fill="#001d3d" fill-opacity="1"><g transform="translate(92.546019, 91.666229)"><g><path d="M 1.875 -25.265625 L 8.828125 -25.265625 C 11.585938 -25.265625 13.675781 -24.773438 15.09375 -23.796875 C 16.507812 -22.816406 17.21875 -21.082031 17.21875 -18.59375 C 17.21875 -16.90625 17 -15.5625 16.5625 -14.5625 C 16.125 -13.5625 15.3125 -12.78125 14.125 -12.21875 L 17.59375 0 L 11.8125 0 L 9.046875 -11.328125 L 7.453125 -11.328125 L 7.453125 0 L 1.875 0 Z M 9.015625 -14.53125 C 10.140625 -14.53125 10.921875 -14.828125 11.359375 -15.421875 C 11.804688 -16.015625 12.03125 -16.90625 12.03125 -18.09375 C 12.03125 -19.226562 11.820312 -20.082031 11.40625 -20.65625 C 11 -21.226562 10.285156 -21.515625 9.265625 -21.515625 L 7.453125 -21.515625 L 7.453125 -14.53125 Z M 9.015625 -14.53125 "/></g></g></g><g fill="#001d3d" fill-opacity="1"><g transform="translate(111.255281, 91.666229)"><g><path d="M 1.90625 -25.265625 L 7.484375 -25.265625 L 7.484375 0 L 1.90625 0 Z M 1.90625 -25.265625 "/></g></g></g><g fill="#001d3d" fill-opacity="1"><g transform="translate(120.641092, 91.666229)"><g><path d="M 4.140625 -21.109375 L 0.34375 -21.109375 L 0.34375 -25.265625 L 13.53125 -25.265625 L 13.53125 -21.109375 L 9.765625 -21.109375 L 9.765625 0 L 4.140625 0 Z M 4.140625 -21.109375 "/></g></g></g><g fill="#001d3d" fill-opacity="1"><g transform="translate(134.517124, 91.666229)"><g><path d="M 9.109375 0.375 C 6.359375 0.375 4.40625 -0.34375 3.25 -1.78125 C 2.101562 -3.226562 1.53125 -5.316406 1.53125 -8.046875 L 1.53125 -17.15625 C 1.53125 -19.9375 2.097656 -22.039062 3.234375 -23.46875 C 4.378906 -24.894531 6.335938 -25.609375 9.109375 -25.609375 C 11.742188 -25.609375 13.613281 -24.972656 14.71875 -23.703125 C 15.820312 -22.429688 16.375 -20.632812 16.375 -18.3125 L 16.375 -16.125 L 10.921875 -16.125 L 10.921875 -18.65625 C 10.921875 -19.625 10.816406 -20.367188 10.609375 -20.890625 C 10.398438 -21.410156 9.898438 -21.671875 9.109375 -21.671875 C 8.316406 -21.671875 7.796875 -21.394531 7.546875 -20.84375 C 7.296875 -20.289062 7.171875 -19.53125 7.171875 -18.5625 L 7.171875 -6.671875 C 7.171875 -5.671875 7.300781 -4.90625 7.5625 -4.375 C 7.820312 -3.851562 8.335938 -3.59375 9.109375 -3.59375 C 9.878906 -3.59375 10.375 -3.851562 10.59375 -4.375 C 10.8125 -4.90625 10.921875 -5.671875 10.921875 -6.671875 L 10.921875 -9.328125 L 16.375 -9.328125 L 16.375 -7.140625 C 16.375 -4.773438 15.820312 -2.929688 14.71875 -1.609375 C 13.613281 -0.285156 11.742188 0.375 9.109375 0.375 Z M 9.109375 0.375 "/></g></g></g><g fill="#001d3d" fill-opacity="1"><g transform="translate(152.072645, 91.666229)"><g><path d="M 1.96875 -25.265625 L 7.546875 -25.265625 L 7.546875 -15.03125 L 11.453125 -15.03125 L 11.453125 -25.265625 L 17.0625 -25.265625 L 17.0625 0 L 11.453125 0 L 11.453125 -11.046875 L 7.546875 -11.046875 L 7.546875 0 L 1.96875 0 Z M 1.96875 -25.265625 "/></g></g></g><g fill="#001d3d" fill-opacity="1"><g transform="translate(171.093727, 91.666229)"><g><path d="M 5.421875 -25.265625 L 11.78125 -25.265625 L 16.5 0 L 11.359375 0 L 10.515625 -5.328125 L 6.796875 -5.328125 L 5.921875 0 L 0.65625 0 Z M 9.984375 -8.671875 L 8.640625 -18.53125 L 7.296875 -8.671875 Z M 9.984375 -8.671875 "/></g></g></g><g fill="#001d3d" fill-opacity="1"><g transform="translate(188.275061, 91.666229)"><g><path d="M 1.875 -25.265625 L 8.828125 -25.265625 C 11.585938 -25.265625 13.675781 -24.773438 15.09375 -23.796875 C 16.507812 -22.816406 17.21875 -21.082031 17.21875 -18.59375 C 17.21875 -16.90625 17 -15.5625 16.5625 -14.5625 C 16.125 -13.5625 15.3125 -12.78125 14.125 -12.21875 L 17.59375 0 L 11.8125 0 L 9.046875 -11.328125 L 7.453125 -11.328125 L 7.453125 0 L 1.875 0 Z M 9.015625 -14.53125 C 10.140625 -14.53125 10.921875 -14.828125 11.359375 -15.421875 C 11.804688 -16.015625 12.03125 -16.90625 12.03125 -18.09375 C 12.03125 -19.226562 11.820312 -20.082031 11.40625 -20.65625 C 11 -21.226562 10.285156 -21.515625 9.265625 -21.515625 L 7.453125 -21.515625 L 7.453125 -14.53125 Z M 9.015625 -14.53125 "/></g></g></g><g fill="#001d3d" fill-opacity="1"><g transform="translate(206.984323, 91.666229)"><g><path d="M 1.875 -25.265625 L 8.265625 -25.265625 C 10.453125 -25.265625 12.15625 -24.992188 13.375 -24.453125 C 14.601562 -23.910156 15.472656 -23.0625 15.984375 -21.90625 C 16.492188 -20.75 16.75 -19.207031 16.75 -17.28125 L 16.75 -8.109375 C 16.75 -6.148438 16.492188 -4.585938 15.984375 -3.421875 C 15.472656 -2.265625 14.609375 -1.40625 13.390625 -0.84375 C 12.179688 -0.28125 10.492188 0 8.328125 0 L 1.875 0 Z M 8.328125 -3.875 C 9.140625 -3.875 9.738281 -3.988281 10.125 -4.21875 C 10.507812 -4.457031 10.753906 -4.800781 10.859375 -5.25 C 10.960938 -5.695312 11.015625 -6.359375 11.015625 -7.234375 L 11.015625 -18.25 C 11.015625 -19.0625 10.957031 -19.675781 10.84375 -20.09375 C 10.726562 -20.519531 10.476562 -20.835938 10.09375 -21.046875 C 9.707031 -21.253906 9.109375 -21.359375 8.296875 -21.359375 L 7.453125 -21.359375 L 7.453125 -3.875 Z M 8.328125 -3.875 "/></g></g></g><g fill="#0088ce" fill-opacity="1"><g transform="translate(99.844558, 122.597036)"><g><path d="M 3.4375 0.140625 C 2.394531 0.140625 1.65625 -0.128906 1.21875 -0.671875 C 0.789062 -1.222656 0.578125 -2.007812 0.578125 -3.03125 L 0.578125 -6.46875 C 0.578125 -7.519531 0.789062 -8.3125 1.21875 -8.84375 C 1.65625 -9.382812 2.394531 -9.65625 3.4375 -9.65625 C 4.4375 -9.65625 5.140625 -9.414062 5.546875 -8.9375 C 5.960938 -8.457031 6.171875 -7.78125 6.171875 -6.90625 L 6.171875 -6.078125 L 4.125 -6.078125 L 4.125 -7.03125 C 4.125 -7.40625 4.082031 -7.6875 4 -7.875 C 3.914062 -8.070312 3.726562 -8.171875 3.4375 -8.171875 C 3.132812 -8.171875 2.9375 -8.066406 2.84375 -7.859375 C 2.75 -7.648438 2.703125 -7.363281 2.703125 -7 L 2.703125 -2.515625 C 2.703125 -2.140625 2.75 -1.851562 2.84375 -1.65625 C 2.945312 -1.457031 3.144531 -1.359375 3.4375 -1.359375 C 3.726562 -1.359375 3.914062 -1.457031 4 -1.65625 C 4.082031 -1.851562 4.125 -2.140625 4.125 -2.515625 L 4.125 -3.515625 L 6.171875 -3.515625 L 6.171875 -2.6875 C 6.171875 -1.800781 5.960938 -1.109375 5.546875 -0.609375 C 5.140625 -0.109375 4.4375 0.140625 3.4375 0.140625 Z M 3.4375 0.140625 "/></g></g></g><g fill="#0088ce" fill-opacity="1"><g transform="translate(107.294182, 122.597036)"><g><path d="M 3.4375 0.140625 C 2.40625 0.140625 1.671875 -0.125 1.234375 -0.65625 C 0.796875 -1.1875 0.578125 -1.96875 0.578125 -3 L 0.578125 -6.546875 C 0.578125 -7.578125 0.796875 -8.351562 1.234375 -8.875 C 1.671875 -9.394531 2.40625 -9.65625 3.4375 -9.65625 C 4.46875 -9.65625 5.203125 -9.390625 5.640625 -8.859375 C 6.085938 -8.335938 6.3125 -7.566406 6.3125 -6.546875 L 6.3125 -3 C 6.3125 -1.96875 6.085938 -1.1875 5.640625 -0.65625 C 5.203125 -0.125 4.46875 0.140625 3.4375 0.140625 Z M 3.4375 -1.359375 C 3.726562 -1.359375 3.921875 -1.457031 4.015625 -1.65625 C 4.117188 -1.851562 4.171875 -2.125 4.171875 -2.46875 L 4.171875 -7.0625 C 4.171875 -7.414062 4.117188 -7.6875 4.015625 -7.875 C 3.921875 -8.070312 3.726562 -8.171875 3.4375 -8.171875 C 3.15625 -8.171875 2.96875 -8.070312 2.875 -7.875 C 2.78125 -7.675781 2.734375 -7.40625 2.734375 -7.0625 L 2.734375 -2.46875 C 2.734375 -2.125 2.773438 -1.851562 2.859375 -1.65625 C 2.941406 -1.457031 3.132812 -1.359375 3.4375 -1.359375 Z M 3.4375 -1.359375 "/></g></g></g><g fill="#0088ce" fill-opacity="1"><g transform="translate(115.014496, 122.597036)"><g><path d="M 0.828125 -9.53125 L 3.09375 -9.53125 L 4.140625 -3.984375 L 5.265625 -9.53125 L 7.453125 -9.53125 L 7.609375 0 L 6.125 0 L 5.9375 -6.34375 L 4.828125 0 L 3.5 0 L 2.328125 -6.390625 L 2.1875 0 L 0.671875 0 Z M 0.828125 -9.53125 "/></g></g></g><g fill="#0088ce" fill-opacity="1"><g transform="translate(124.123523, 122.597036)"><g><path d="M 0.828125 -9.53125 L 3.09375 -9.53125 L 4.140625 -3.984375 L 5.265625 -9.53125 L 7.453125 -9.53125 L 7.609375 0 L 6.125 0 L 5.9375 -6.34375 L 4.828125 0 L 3.5 0 L 2.328125 -6.390625 L 2.1875 0 L 0.671875 0 Z M 0.828125 -9.53125 "/></g></g></g><g fill="#0088ce" fill-opacity="1"><g transform="translate(133.232548, 122.597036)"><g><path d="M 0.71875 -9.53125 L 2.828125 -9.53125 L 2.828125 0 L 0.71875 0 Z M 0.71875 -9.53125 "/></g></g></g><g fill="#0088ce" fill-opacity="1"><g transform="translate(137.59876, 122.597036)"><g><path d="M 3.234375 0.140625 C 2.328125 0.140625 1.648438 -0.0976562 1.203125 -0.578125 C 0.765625 -1.066406 0.53125 -1.832031 0.5 -2.875 L 2.296875 -3.15625 C 2.304688 -2.550781 2.378906 -2.113281 2.515625 -1.84375 C 2.648438 -1.582031 2.851562 -1.453125 3.125 -1.453125 C 3.476562 -1.453125 3.65625 -1.6875 3.65625 -2.15625 C 3.65625 -2.519531 3.570312 -2.832031 3.40625 -3.09375 C 3.238281 -3.363281 2.972656 -3.65625 2.609375 -3.96875 L 1.78125 -4.6875 C 1.375 -5.03125 1.054688 -5.394531 0.828125 -5.78125 C 0.609375 -6.164062 0.5 -6.628906 0.5 -7.171875 C 0.5 -7.960938 0.734375 -8.570312 1.203125 -9 C 1.679688 -9.4375 2.335938 -9.65625 3.171875 -9.65625 C 4.078125 -9.65625 4.691406 -9.390625 5.015625 -8.859375 C 5.335938 -8.335938 5.515625 -7.703125 5.546875 -6.953125 L 3.734375 -6.734375 C 3.710938 -7.222656 3.664062 -7.578125 3.59375 -7.796875 C 3.519531 -8.015625 3.359375 -8.125 3.109375 -8.125 C 2.921875 -8.125 2.78125 -8.046875 2.6875 -7.890625 C 2.59375 -7.734375 2.546875 -7.5625 2.546875 -7.375 C 2.546875 -7.050781 2.617188 -6.78125 2.765625 -6.5625 C 2.910156 -6.34375 3.140625 -6.09375 3.453125 -5.8125 L 4.25 -5.125 C 4.71875 -4.71875 5.082031 -4.289062 5.34375 -3.84375 C 5.601562 -3.394531 5.734375 -2.867188 5.734375 -2.265625 C 5.734375 -1.816406 5.628906 -1.410156 5.421875 -1.046875 C 5.210938 -0.679688 4.921875 -0.390625 4.546875 -0.171875 C 4.171875 0.0351562 3.734375 0.140625 3.234375 0.140625 Z M 3.234375 0.140625 "/></g></g></g><g fill="#0088ce" fill-opacity="1"><g transform="translate(144.471717, 122.597036)"><g><path d="M 3.234375 0.140625 C 2.328125 0.140625 1.648438 -0.0976562 1.203125 -0.578125 C 0.765625 -1.066406 0.53125 -1.832031 0.5 -2.875 L 2.296875 -3.15625 C 2.304688 -2.550781 2.378906 -2.113281 2.515625 -1.84375 C 2.648438 -1.582031 2.851562 -1.453125 3.125 -1.453125 C 3.476562 -1.453125 3.65625 -1.6875 3.65625 -2.15625 C 3.65625 -2.519531 3.570312 -2.832031 3.40625 -3.09375 C 3.238281 -3.363281 2.972656 -3.65625 2.609375 -3.96875 L 1.78125 -4.6875 C 1.375 -5.03125 1.054688 -5.394531 0.828125 -5.78125 C 0.609375 -6.164062 0.5 -6.628906 0.5 -7.171875 C 0.5 -7.960938 0.734375 -8.570312 1.203125 -9 C 1.679688 -9.4375 2.335938 -9.65625 3.171875 -9.65625 C 4.078125 -9.65625 4.691406 -9.390625 5.015625 -8.859375 C 5.335938 -8.335938 5.515625 -7.703125 5.546875 -6.953125 L 3.734375 -6.734375 C 3.710938 -7.222656 3.664062 -7.578125 3.59375 -7.796875 C 3.519531 -8.015625 3.359375 -8.125 3.109375 -8.125 C 2.921875 -8.125 2.78125 -8.046875 2.6875 -7.890625 C 2.59375 -7.734375 2.546875 -7.5625 2.546875 -7.375 C 2.546875 -7.050781 2.617188 -6.78125 2.765625 -6.5625 C 2.910156 -6.34375 3.140625 -6.09375 3.453125 -5.8125 L 4.25 -5.125 C 4.71875 -4.71875 5.082031 -4.289062 5.34375 -3.84375 C 5.601562 -3.394531 5.734375 -2.867188 5.734375 -2.265625 C 5.734375 -1.816406 5.628906 -1.410156 5.421875 -1.046875 C 5.210938 -0.679688 4.921875 -0.390625 4.546875 -0.171875 C 4.171875 0.0351562 3.734375 0.140625 3.234375 0.140625 Z M 3.234375 0.140625 "/></g></g></g><g fill="#0088ce" fill-opacity="1"><g transform="translate(151.344674, 122.597036)"><g><path d="M 0.71875 -9.53125 L 2.828125 -9.53125 L 2.828125 0 L 0.71875 0 Z M 0.71875 -9.53125 "/></g></g></g><g fill="#0088ce" fill-opacity="1"><g transform="translate(155.710888, 122.597036)"><g><path d="M 3.4375 0.140625 C 2.40625 0.140625 1.671875 -0.125 1.234375 -0.65625 C 0.796875 -1.1875 0.578125 -1.96875 0.578125 -3 L 0.578125 -6.546875 C 0.578125 -7.578125 0.796875 -8.351562 1.234375 -8.875 C 1.671875 -9.394531 2.40625 -9.65625 3.4375 -9.65625 C 4.46875 -9.65625 5.203125 -9.390625 5.640625 -8.859375 C 6.085938 -8.335938 6.3125 -7.566406 6.3125 -6.546875 L 6.3125 -3 C 6.3125 -1.96875 6.085938 -1.1875 5.640625 -0.65625 C 5.203125 -0.125 4.46875 0.140625 3.4375 0.140625 Z M 3.4375 -1.359375 C 3.726562 -1.359375 3.921875 -1.457031 4.015625 -1.65625 C 4.117188 -1.851562 4.171875 -2.125 4.171875 -2.46875 L 4.171875 -7.0625 C 4.171875 -7.414062 4.117188 -7.6875 4.015625 -7.875 C 3.921875 -8.070312 3.726562 -8.171875 3.4375 -8.171875 C 3.15625 -8.171875 2.96875 -8.070312 2.875 -7.875 C 2.78125 -7.675781 2.734375 -7.40625 2.734375 -7.0625 L 2.734375 -2.46875 C 2.734375 -2.125 2.773438 -1.851562 2.859375 -1.65625 C 2.941406 -1.457031 3.132812 -1.359375 3.4375 -1.359375 Z M 3.4375 -1.359375 "/></g></g></g><g fill="#0088ce" fill-opacity="1"><g transform="translate(163.431204, 122.597036)"><g><path d="M 0.703125 -9.53125 L 2.1875 -9.53125 L 4.140625 -4.9375 L 4.140625 -9.53125 L 5.890625 -9.53125 L 5.890625 0 L 4.453125 0 L 2.5 -4.9375 L 2.5 0 L 0.703125 0 Z M 0.703125 -9.53125 "/></g></g></g><g fill="#0088ce" fill-opacity="1"><g transform="translate(170.857295, 122.597036)"><g><path d="M 0.703125 -9.53125 L 4.984375 -9.53125 L 4.984375 -8.09375 L 2.8125 -8.09375 L 2.8125 -5.734375 L 4.46875 -5.734375 L 4.46875 -4.265625 L 2.8125 -4.265625 L 2.8125 -1.421875 L 5.015625 -1.421875 L 5.015625 0 L 0.703125 0 Z M 0.703125 -9.53125 "/></g></g></g><g fill="#0088ce" fill-opacity="1"><g transform="translate(176.941744, 122.597036)"><g><path d="M 0.703125 -9.53125 L 3.328125 -9.53125 C 4.367188 -9.53125 5.15625 -9.34375 5.6875 -8.96875 C 6.226562 -8.601562 6.5 -7.953125 6.5 -7.015625 C 6.5 -6.378906 6.414062 -5.875 6.25 -5.5 C 6.082031 -5.125 5.773438 -4.828125 5.328125 -4.609375 L 6.640625 0 L 4.453125 0 L 3.40625 -4.265625 L 2.8125 -4.265625 L 2.8125 0 L 0.703125 0 Z M 3.40625 -5.484375 C 3.820312 -5.484375 4.113281 -5.59375 4.28125 -5.8125 C 4.457031 -6.039062 4.546875 -6.378906 4.546875 -6.828125 C 4.546875 -7.253906 4.46875 -7.578125 4.3125 -7.796875 C 4.15625 -8.015625 3.882812 -8.125 3.5 -8.125 L 2.8125 -8.125 L 2.8125 -5.484375 Z M 3.40625 -5.484375 "/></g></g></g><g fill="#0088ce" fill-opacity="1"><g transform="translate(184.826822, 122.597036)"><g/></g></g><g fill="#0088ce" fill-opacity="1"><g transform="translate(188.663441, 122.597036)"><g><path d="M 3.4375 0.140625 C 2.40625 0.140625 1.671875 -0.125 1.234375 -0.65625 C 0.796875 -1.1875 0.578125 -1.96875 0.578125 -3 L 0.578125 -6.546875 C 0.578125 -7.578125 0.796875 -8.351562 1.234375 -8.875 C 1.671875 -9.394531 2.40625 -9.65625 3.4375 -9.65625 C 4.46875 -9.65625 5.203125 -9.390625 5.640625 -8.859375 C 6.085938 -8.335938 6.3125 -7.566406 6.3125 -6.546875 L 6.3125 -3 C 6.3125 -1.96875 6.085938 -1.1875 5.640625 -0.65625 C 5.203125 -0.125 4.46875 0.140625 3.4375 0.140625 Z M 3.4375 -1.359375 C 3.726562 -1.359375 3.921875 -1.457031 4.015625 -1.65625 C 4.117188 -1.851562 4.171875 -2.125 4.171875 -2.46875 L 4.171875 -7.0625 C 4.171875 -7.414062 4.117188 -7.6875 4.015625 -7.875 C 3.921875 -8.070312 3.726562 -8.171875 3.4375 -8.171875 C 3.15625 -8.171875 2.96875 -8.070312 2.875 -7.875 C 2.78125 -7.675781 2.734375 -7.40625 2.734375 -7.0625 L 2.734375 -2.46875 C 2.734375 -2.125 2.773438 -1.851562 2.859375 -1.65625 C 2.941406 -1.457031 3.132812 -1.359375 3.4375 -1.359375 Z M 3.4375 -1.359375 "/></g></g></g><g fill="#0088ce" fill-opacity="1"><g transform="translate(196.383752, 122.597036)"><g><path d="M 0.703125 -9.53125 L 4.828125 -9.53125 L 4.828125 -8.109375 L 2.8125 -8.109375 L 2.8125 -5.703125 L 4.5625 -5.703125 L 4.5625 -4.234375 L 2.8125 -4.234375 L 2.8125 0 L 0.703125 0 Z M 0.703125 -9.53125 "/></g></g></g><g fill="#0088ce" fill-opacity="1"><g transform="translate(109.222778, 137.307969)"><g><path d="M 0.703125 -9.53125 L 3.90625 -9.53125 C 4.75 -9.53125 5.375 -9.289062 5.78125 -8.8125 C 6.195312 -8.34375 6.40625 -7.660156 6.40625 -6.765625 C 6.40625 -5.742188 6.164062 -5.035156 5.6875 -4.640625 C 5.207031 -4.242188 4.53125 -4.046875 3.65625 -4.046875 L 2.8125 -4.046875 L 2.8125 0 L 0.703125 0 Z M 3.515625 -5.515625 C 3.890625 -5.515625 4.132812 -5.613281 4.25 -5.8125 C 4.375 -6.007812 4.4375 -6.335938 4.4375 -6.796875 C 4.4375 -7.222656 4.375 -7.535156 4.25 -7.734375 C 4.132812 -7.941406 3.882812 -8.046875 3.5 -8.046875 L 2.8125 -8.046875 L 2.8125 -5.515625 Z M 3.515625 -5.515625 "/></g></g></g><g fill="#0088ce" fill-opacity="1"><g transform="translate(116.766556, 137.307969)"><g><path d="M 3.453125 0.140625 C 2.742188 0.140625 2.179688 0.0234375 1.765625 -0.203125 C 1.347656 -0.429688 1.054688 -0.769531 0.890625 -1.21875 C 0.722656 -1.675781 0.640625 -2.253906 0.640625 -2.953125 L 0.640625 -9.53125 L 2.71875 -9.53125 L 2.71875 -2.640625 C 2.71875 -2.253906 2.765625 -1.945312 2.859375 -1.71875 C 2.960938 -1.488281 3.160156 -1.375 3.453125 -1.375 C 3.753906 -1.375 3.953125 -1.488281 4.046875 -1.71875 C 4.140625 -1.945312 4.1875 -2.253906 4.1875 -2.640625 L 4.1875 -9.53125 L 6.28125 -9.53125 L 6.28125 -2.953125 C 6.28125 -2.253906 6.191406 -1.675781 6.015625 -1.21875 C 5.847656 -0.769531 5.554688 -0.429688 5.140625 -0.203125 C 4.734375 0.0234375 4.171875 0.140625 3.453125 0.140625 Z M 3.453125 0.140625 "/></g></g></g><g fill="#0088ce" fill-opacity="1"><g transform="translate(124.510406, 137.307969)"><g><path d="M 0.703125 -9.53125 L 3.1875 -9.53125 C 3.8125 -9.53125 4.335938 -9.460938 4.765625 -9.328125 C 5.203125 -9.203125 5.550781 -8.953125 5.8125 -8.578125 C 6.082031 -8.210938 6.21875 -7.695312 6.21875 -7.03125 C 6.21875 -6.46875 6.097656 -6.03125 5.859375 -5.71875 C 5.617188 -5.40625 5.273438 -5.207031 4.828125 -5.125 C 5.367188 -5.050781 5.785156 -4.816406 6.078125 -4.421875 C 6.367188 -4.023438 6.515625 -3.492188 6.515625 -2.828125 C 6.515625 -0.941406 5.554688 0 3.640625 0 L 0.703125 0 Z M 3.21875 -5.71875 C 3.664062 -5.71875 3.96875 -5.816406 4.125 -6.015625 C 4.289062 -6.222656 4.375 -6.546875 4.375 -6.984375 C 4.375 -7.359375 4.269531 -7.640625 4.0625 -7.828125 C 3.863281 -8.023438 3.566406 -8.125 3.171875 -8.125 L 2.8125 -8.125 L 2.8125 -5.71875 Z M 3.265625 -1.46875 C 3.710938 -1.46875 4.023438 -1.578125 4.203125 -1.796875 C 4.390625 -2.023438 4.484375 -2.378906 4.484375 -2.859375 C 4.484375 -3.398438 4.390625 -3.78125 4.203125 -4 C 4.023438 -4.21875 3.707031 -4.328125 3.25 -4.328125 L 2.8125 -4.328125 L 2.8125 -1.46875 Z M 3.265625 -1.46875 "/></g></g></g><g fill="#0088ce" fill-opacity="1"><g transform="translate(132.254256, 137.307969)"><g><path d="M 0.703125 -9.53125 L 2.8125 -9.53125 L 2.8125 -1.421875 L 5 -1.421875 L 5 0 L 0.703125 0 Z M 0.703125 -9.53125 "/></g></g></g><g fill="#0088ce" fill-opacity="1"><g transform="translate(138.291631, 137.307969)"><g><path d="M 0.71875 -9.53125 L 2.828125 -9.53125 L 2.828125 0 L 0.71875 0 Z M 0.71875 -9.53125 "/></g></g></g><g fill="#0088ce" fill-opacity="1"><g transform="translate(142.657842, 137.307969)"><g><path d="M 3.4375 0.140625 C 2.394531 0.140625 1.65625 -0.128906 1.21875 -0.671875 C 0.789062 -1.222656 0.578125 -2.007812 0.578125 -3.03125 L 0.578125 -6.46875 C 0.578125 -7.519531 0.789062 -8.3125 1.21875 -8.84375 C 1.65625 -9.382812 2.394531 -9.65625 3.4375 -9.65625 C 4.4375 -9.65625 5.140625 -9.414062 5.546875 -8.9375 C 5.960938 -8.457031 6.171875 -7.78125 6.171875 -6.90625 L 6.171875 -6.078125 L 4.125 -6.078125 L 4.125 -7.03125 C 4.125 -7.40625 4.082031 -7.6875 4 -7.875 C 3.914062 -8.070312 3.726562 -8.171875 3.4375 -8.171875 C 3.132812 -8.171875 2.9375 -8.066406 2.84375 -7.859375 C 2.75 -7.648438 2.703125 -7.363281 2.703125 -7 L 2.703125 -2.515625 C 2.703125 -2.140625 2.75 -1.851562 2.84375 -1.65625 C 2.945312 -1.457031 3.144531 -1.359375 3.4375 -1.359375 C 3.726562 -1.359375 3.914062 -1.457031 4 -1.65625 C 4.082031 -1.851562 4.125 -2.140625 4.125 -2.515625 L 4.125 -3.515625 L 6.171875 -3.515625 L 6.171875 -2.6875 C 6.171875 -1.800781 5.960938 -1.109375 5.546875 -0.609375 C 5.140625 -0.109375 4.4375 0.140625 3.4375 0.140625 Z M 3.4375 0.140625 "/></g></g></g><g fill="#0088ce" fill-opacity="1"><g transform="translate(150.107466, 137.307969)"><g/></g></g><g fill="#0088ce" fill-opacity="1"><g transform="translate(153.944082, 137.307969)"><g><path d="M 0.3125 -9.53125 L 2.109375 -9.53125 L 2.671875 -3.984375 L 3.390625 -9.515625 L 4.78125 -9.515625 L 5.546875 -4.015625 L 6.125 -9.53125 L 7.890625 -9.53125 L 6.734375 0 L 4.90625 0 L 4.09375 -5.75 L 3.328125 0 L 1.46875 0 Z M 0.3125 -9.53125 "/></g></g></g><g fill="#0088ce" fill-opacity="1"><g transform="translate(162.97073, 137.307969)"><g><path d="M 3.4375 0.140625 C 2.40625 0.140625 1.671875 -0.125 1.234375 -0.65625 C 0.796875 -1.1875 0.578125 -1.96875 0.578125 -3 L 0.578125 -6.546875 C 0.578125 -7.578125 0.796875 -8.351562 1.234375 -8.875 C 1.671875 -9.394531 2.40625 -9.65625 3.4375 -9.65625 C 4.46875 -9.65625 5.203125 -9.390625 5.640625 -8.859375 C 6.085938 -8.335938 6.3125 -7.566406 6.3125 -6.546875 L 6.3125 -3 C 6.3125 -1.96875 6.085938 -1.1875 5.640625 -0.65625 C 5.203125 -0.125 4.46875 0.140625 3.4375 0.140625 Z M 3.4375 -1.359375 C 3.726562 -1.359375 3.921875 -1.457031 4.015625 -1.65625 C 4.117188 -1.851562 4.171875 -2.125 4.171875 -2.46875 L 4.171875 -7.0625 C 4.171875 -7.414062 4.117188 -7.6875 4.015625 -7.875 C 3.921875 -8.070312 3.726562 -8.171875 3.4375 -8.171875 C 3.15625 -8.171875 2.96875 -8.070312 2.875 -7.875 C 2.78125 -7.675781 2.734375 -7.40625 2.734375 -7.0625 L 2.734375 -2.46875 C 2.734375 -2.125 2.773438 -1.851562 2.859375 -1.65625 C 2.941406 -1.457031 3.132812 -1.359375 3.4375 -1.359375 Z M 3.4375 -1.359375 "/></g></g></g><g fill="#0088ce" fill-opacity="1"><g transform="translate(170.691046, 137.307969)"><g><path d="M 0.703125 -9.53125 L 3.328125 -9.53125 C 4.367188 -9.53125 5.15625 -9.34375 5.6875 -8.96875 C 6.226562 -8.601562 6.5 -7.953125 6.5 -7.015625 C 6.5 -6.378906 6.414062 -5.875 6.25 -5.5 C 6.082031 -5.125 5.773438 -4.828125 5.328125 -4.609375 L 6.640625 0 L 4.453125 0 L 3.40625 -4.265625 L 2.8125 -4.265625 L 2.8125 0 L 0.703125 0 Z M 3.40625 -5.484375 C 3.820312 -5.484375 4.113281 -5.59375 4.28125 -5.8125 C 4.457031 -6.039062 4.546875 -6.378906 4.546875 -6.828125 C 4.546875 -7.253906 4.46875 -7.578125 4.3125 -7.796875 C 4.15625 -8.015625 3.882812 -8.125 3.5 -8.125 L 2.8125 -8.125 L 2.8125 -5.484375 Z M 3.40625 -5.484375 "/></g></g></g><g fill="#0088ce" fill-opacity="1"><g transform="translate(178.576124, 137.307969)"><g><path d="M 0.703125 -9.53125 L 2.8125 -9.53125 L 2.8125 -5.640625 L 4.40625 -9.53125 L 6.46875 -9.53125 L 4.703125 -5.21875 L 6.546875 0 L 4.40625 0 L 3.03125 -4.21875 L 2.8125 -3.828125 L 2.8125 0 L 0.703125 0 Z M 0.703125 -9.53125 "/></g></g></g><g fill="#0088ce" fill-opacity="1"><g transform="translate(186.072833, 137.307969)"><g><path d="M 3.234375 0.140625 C 2.328125 0.140625 1.648438 -0.0976562 1.203125 -0.578125 C 0.765625 -1.066406 0.53125 -1.832031 0.5 -2.875 L 2.296875 -3.15625 C 2.304688 -2.550781 2.378906 -2.113281 2.515625 -1.84375 C 2.648438 -1.582031 2.851562 -1.453125 3.125 -1.453125 C 3.476562 -1.453125 3.65625 -1.6875 3.65625 -2.15625 C 3.65625 -2.519531 3.570312 -2.832031 3.40625 -3.09375 C 3.238281 -3.363281 2.972656 -3.65625 2.609375 -3.96875 L 1.78125 -4.6875 C 1.375 -5.03125 1.054688 -5.394531 0.828125 -5.78125 C 0.609375 -6.164062 0.5 -6.628906 0.5 -7.171875 C 0.5 -7.960938 0.734375 -8.570312 1.203125 -9 C 1.679688 -9.4375 2.335938 -9.65625 3.171875 -9.65625 C 4.078125 -9.65625 4.691406 -9.390625 5.015625 -8.859375 C 5.335938 -8.335938 5.515625 -7.703125 5.546875 -6.953125 L 3.734375 -6.734375 C 3.710938 -7.222656 3.664062 -7.578125 3.59375 -7.796875 C 3.519531 -8.015625 3.359375 -8.125 3.109375 -8.125 C 2.921875 -8.125 2.78125 -8.046875 2.6875 -7.890625 C 2.59375 -7.734375 2.546875 -7.5625 2.546875 -7.375 C 2.546875 -7.050781 2.617188 -6.78125 2.765625 -6.5625 C 2.910156 -6.34375 3.140625 -6.09375 3.453125 -5.8125 L 4.25 -5.125 C 4.71875 -4.71875 5.082031 -4.289062 5.34375 -3.84375 C 5.601562 -3.394531 5.734375 -2.867188 5.734375 -2.265625 C 5.734375 -1.816406 5.628906 -1.410156 5.421875 -1.046875 C 5.210938 -0.679688 4.921875 -0.390625 4.546875 -0.171875 C 4.171875 0.0351562 3.734375 0.140625 3.234375 0.140625 Z M 3.234375 0.140625 "/></g></g></g><g clip-path="url(#439f29783a)"><path fill="#001d3d" d="M 71.789062 47.78125 L 228.265625 47.78125 L 228.265625 52.21875 L 71.789062 52.21875 Z M 71.789062 47.78125 " fill-opacity="1" fill-rule="nonzero"/></g><g clip-path="url(#6f487eba6f)"><path fill="#001d3d" d="M 228.871094 102.855469 L 72.394531 102.855469 L 72.394531 98.417969 L 228.871094 98.417969 Z M 228.871094 102.855469 " fill-opacity="1" fill-rule="nonzero"/></g></svg>